<svg width="455" height="490" viewBox="0 0 455 490" fill="none" xmlns="http://www.w3.org/2000/svg">
<rect width="412.27" height="260.381" rx="34.7175" transform="matrix(0.981627 0.190809 0.190809 0.981627 7.62939e-06 155.487)" fill="#2BB32A" stroke="url(#paint0_linear_18_11)" stroke-opacity="0.5" stroke-width="2.16984"/>
<path d="M80.984 355.263L78.8684 344.379L80.8514 344.764L87.2455 353.525L87.2754 353.531L85.7567 345.718L87.6055 346.077L89.7212 356.962L87.7382 356.576L81.3589 347.818L81.3291 347.813L82.8478 355.625L80.984 355.263ZM93.8958 357.916C93.1205 357.766 92.4686 357.438 91.9402 356.934C91.4197 356.421 91.089 355.802 90.948 355.077C90.7721 354.172 90.9898 353.545 91.6008 353.195C92.2119 352.845 93.1685 352.797 94.4706 353.05L95.559 353.261C95.4856 352.884 95.3798 352.586 95.2418 352.368C95.1118 352.142 94.9247 351.967 94.6806 351.843C94.4465 351.721 94.1257 351.62 93.7181 351.541C93.2211 351.444 92.7139 351.393 92.1965 351.388C91.689 351.385 91.221 351.438 90.7925 351.546L90.2728 350.053C90.743 349.963 91.2756 349.923 91.8706 349.933C92.4657 349.944 93.0713 350.009 93.6876 350.129C94.4728 350.281 95.1075 350.496 95.5915 350.772C96.0854 351.049 96.4753 351.431 96.761 351.917C97.0467 352.403 97.2611 353.014 97.4041 353.749L98.3547 358.64L96.6102 358.301L96.4214 357.403L96.3916 357.397C96.1831 357.653 95.8447 357.831 95.3765 357.932C94.9062 358.022 94.4127 358.017 93.8958 357.916ZM94.2736 356.613C94.6414 356.684 94.9668 356.685 95.2498 356.616C95.5309 356.537 95.7387 356.4 95.8732 356.206C96.0076 356.012 96.0469 355.771 95.9908 355.483L95.8082 354.544L94.9882 354.384C94.1334 354.218 93.5095 354.207 93.1166 354.351C92.7317 354.486 92.5837 354.783 92.6725 355.24C92.7382 355.578 92.9097 355.869 93.1869 356.114C93.4641 356.36 93.8263 356.526 94.2736 356.613ZM100.317 359.021L98.8104 351.268L100.51 351.598L100.717 352.514L100.747 352.52C100.959 352.236 101.242 352.042 101.595 351.938C101.946 351.825 102.38 351.818 102.897 351.919C103.403 352.017 103.849 352.195 104.234 352.451C104.626 352.7 104.93 353.008 105.145 353.375L105.175 353.38C105.401 353.071 105.692 352.869 106.047 352.775C106.402 352.682 106.843 352.686 107.369 352.788C108.204 352.951 108.854 353.292 109.319 353.813C109.782 354.324 110.105 355.051 110.288 355.995L111.291 361.154L109.517 360.809L108.601 356.098C108.487 355.511 108.309 355.066 108.068 354.761C107.827 354.455 107.498 354.262 107.081 354.181C106.584 354.085 106.223 354.172 105.998 354.444C105.774 354.716 105.715 355.126 105.821 355.672L106.714 360.265L104.925 359.917L103.983 355.071C103.884 354.564 103.705 354.161 103.446 353.862C103.185 353.553 102.861 353.361 102.474 353.286C102.175 353.228 101.917 353.254 101.7 353.365C101.492 353.477 101.34 353.654 101.243 353.893C101.156 354.134 101.146 354.429 101.214 354.777L102.107 359.369L100.317 359.021ZM117.018 362.411C115.646 362.144 114.525 361.592 113.654 360.753C112.783 359.914 112.222 358.849 111.971 357.556C111.728 356.304 111.875 355.386 112.411 354.801C112.958 354.219 113.823 354.043 115.006 354.273C116.149 354.495 117.099 355.005 117.857 355.802C118.614 356.6 119.114 357.62 119.355 358.863C119.382 359.002 119.407 359.155 119.43 359.322C119.453 359.489 119.467 359.611 119.473 359.689L113.121 358.454L112.863 357.127L117.814 358.089L117.623 358.44C117.465 357.625 117.189 356.993 116.796 356.543C116.41 356.086 115.904 355.796 115.278 355.674C114.612 355.545 114.146 355.655 113.879 356.005C113.62 356.347 113.569 356.92 113.726 357.725L113.827 358.247C113.974 359.003 114.282 359.603 114.751 360.048C115.218 360.483 115.854 360.779 116.659 360.935C117.077 361.016 117.517 361.064 117.978 361.077C118.438 361.08 118.838 361.048 119.179 360.98L119.681 362.455C119.332 362.531 118.923 362.566 118.453 362.561C117.983 362.556 117.505 362.506 117.018 362.411Z" fill="#595959"/>
<path d="M69.7592 272.27C68.5764 272.04 67.5141 271.619 66.5723 271.005C65.6305 270.392 64.8499 269.623 64.2304 268.699C63.6208 267.777 63.2029 266.735 62.9769 265.572C62.7489 264.399 62.7784 263.443 63.0653 262.705C63.3602 261.959 63.8916 261.446 64.6595 261.165C65.4274 260.883 66.4028 260.858 67.5856 261.088C68.9374 261.351 70.1922 261.877 71.3499 262.666L71.2363 264.222C70.1104 263.448 69.0206 262.959 67.967 262.754C67.1817 262.602 66.5317 262.628 66.017 262.834C65.5004 263.03 65.145 263.392 64.9509 263.918C64.7568 264.445 64.7399 265.121 64.9002 265.946C65.0587 266.761 65.3499 267.496 65.774 268.153C66.1961 268.799 66.7264 269.337 67.3647 269.767C68.0011 270.188 68.7119 270.474 69.4972 270.627C70.521 270.826 71.4987 270.738 72.4303 270.365L73.1815 272.089C72.2518 272.473 71.1111 272.533 69.7592 272.27ZM75.1409 273.173L73.6338 265.42L75.3932 265.762L75.6921 267.226L75.722 267.232C75.9147 266.944 76.1618 266.714 76.4634 266.544C76.7729 266.365 77.1298 266.257 77.534 266.221C77.9363 266.175 78.371 266.197 78.8382 266.288L79.1454 267.868C78.5192 267.747 77.9709 267.755 77.5003 267.893C77.0398 268.033 76.695 268.277 76.4661 268.624C76.2452 268.964 76.1831 269.382 76.2797 269.879L76.9897 273.532L75.1409 273.173ZM85.0273 275.238C83.6556 274.971 82.5343 274.419 81.6635 273.58C80.7927 272.741 80.2317 271.676 79.9805 270.383C79.7371 269.131 79.8838 268.213 80.4206 267.628C80.9673 267.046 81.8321 266.87 83.0149 267.1C84.158 267.322 85.1084 267.832 85.866 268.629C86.6236 269.427 87.1231 270.447 87.3646 271.69C87.3917 271.829 87.4167 271.982 87.4396 272.149C87.4625 272.316 87.4767 272.438 87.4822 272.516L81.1306 271.281L80.8727 269.954L85.8227 270.916L85.6326 271.267C85.4742 270.452 85.1983 269.82 84.8048 269.37C84.4194 268.913 83.9136 268.623 83.2874 268.501C82.6214 268.372 82.155 268.482 81.8883 268.832C81.6296 269.174 81.5784 269.747 81.7349 270.552L81.8364 271.074C81.9832 271.83 82.2912 272.43 82.7603 272.875C83.2274 273.31 83.8636 273.606 84.6687 273.762C85.0862 273.843 85.5257 273.891 85.9874 273.904C86.4471 273.907 86.8473 273.875 87.1881 273.807L87.6899 275.282C87.3412 275.358 86.932 275.393 86.4623 275.388C85.9927 275.383 85.5143 275.333 85.0273 275.238ZM92.6047 276.711C91.571 276.51 90.6972 276.001 89.9835 275.183C89.2699 274.365 88.7893 273.32 88.542 272.048C88.2947 270.775 88.3907 269.842 88.8301 269.249C89.2694 268.655 90.0059 268.459 91.0397 268.66C91.5566 268.76 92.0411 268.94 92.4934 269.2C92.9456 269.46 93.3497 269.792 93.7056 270.196L93.7503 270.205L92.9649 266.164L94.769 266.515L96.8847 277.399L95.17 277.066L94.9634 276.151L94.9336 276.145C94.711 276.427 94.3945 276.619 93.9839 276.721C93.5813 276.815 93.1216 276.811 92.6047 276.711ZM92.792 275.313C93.1797 275.388 93.5071 275.375 93.7744 275.274C94.0516 275.175 94.2527 275.004 94.3775 274.76C94.5023 274.516 94.5309 274.221 94.4633 273.873L94.1908 272.471C94.1213 272.113 93.971 271.783 93.7399 271.48C93.5069 271.167 93.2258 270.902 92.8967 270.685C92.5676 270.468 92.2042 270.321 91.8066 270.243C91.1804 270.122 90.7359 270.246 90.473 270.615C90.22 270.987 90.1728 271.58 90.3312 272.395C90.4897 273.21 90.7804 273.87 91.2033 274.373C91.6362 274.878 92.1658 275.191 92.792 275.313ZM97.4238 268.724L97.0818 266.965L98.9306 267.324L99.2726 269.083L97.4238 268.724ZM99.1974 277.849L97.6991 270.141L99.5479 270.5L101.046 278.208L99.1974 277.849ZM106.862 279.482C105.948 279.304 105.25 278.987 104.769 278.53C104.288 278.073 103.965 277.417 103.798 276.563L103.016 272.537L101.286 272.201L101.002 270.74L102.732 271.076L102.239 268.541L104.088 268.9L104.581 271.435L107.19 271.942L107.474 273.403L104.865 272.896L105.557 276.46C105.654 276.957 105.801 277.32 105.999 277.55C106.205 277.771 106.516 277.923 106.934 278.004C107.152 278.047 107.377 278.071 107.608 278.078C107.839 278.084 108.042 278.071 108.217 278.038L108.674 279.576C108.355 279.61 108.051 279.618 107.76 279.599C107.47 279.581 107.17 279.542 106.862 279.482ZM119.905 282.018C118.722 281.788 117.66 281.366 116.718 280.752C115.776 280.139 114.996 279.37 114.376 278.447C113.767 277.525 113.349 276.482 113.123 275.319C112.895 274.146 112.924 273.191 113.211 272.453C113.506 271.707 114.038 271.193 114.805 270.912C115.573 270.631 116.549 270.605 117.732 270.835C119.083 271.098 120.338 271.624 121.496 272.413L121.382 273.969C120.256 273.196 119.167 272.707 118.113 272.502C117.328 272.349 116.678 272.376 116.163 272.582C115.646 272.778 115.291 273.139 115.097 273.666C114.903 274.192 114.886 274.868 115.046 275.693C115.205 276.508 115.496 277.244 115.92 277.9C116.342 278.546 116.872 279.085 117.511 279.515C118.147 279.935 118.858 280.221 119.643 280.374C120.667 280.573 121.645 280.486 122.576 280.112L123.327 281.836C122.398 282.22 121.257 282.28 119.905 282.018ZM127.077 283.412C126.302 283.261 125.65 282.933 125.122 282.429C124.601 281.917 124.27 281.298 124.129 280.572C123.954 279.667 124.171 279.04 124.782 278.69C125.393 278.34 126.35 278.292 127.652 278.545L128.74 278.757C128.667 278.379 128.561 278.081 128.423 277.863C128.293 277.637 128.106 277.462 127.862 277.338C127.628 277.216 127.307 277.115 126.9 277.036C126.403 276.939 125.895 276.889 125.378 276.884C124.87 276.881 124.402 276.933 123.974 277.041L123.454 275.549C123.924 275.458 124.457 275.418 125.052 275.429C125.647 275.439 126.253 275.504 126.869 275.624C127.654 275.777 128.289 275.991 128.773 276.267C129.267 276.544 129.657 276.926 129.942 277.412C130.228 277.898 130.443 278.509 130.586 279.244L131.536 284.135L129.792 283.796L129.603 282.898L129.573 282.893C129.365 283.148 129.026 283.327 128.558 283.427C128.088 283.517 127.594 283.512 127.077 283.412ZM127.455 282.108C127.823 282.179 128.148 282.18 128.431 282.111C128.712 282.032 128.92 281.895 129.055 281.701C129.189 281.508 129.228 281.267 129.172 280.978L128.99 280.039L128.17 279.88C127.315 279.713 126.691 279.702 126.298 279.846C125.913 279.981 125.765 280.278 125.854 280.735C125.92 281.073 126.091 281.364 126.368 281.61C126.646 281.855 127.008 282.021 127.455 282.108ZM133.499 284.516L131.992 276.763L133.751 277.105L134.05 278.569L134.08 278.575C134.273 278.287 134.52 278.058 134.821 277.887C135.131 277.708 135.488 277.601 135.892 277.564C136.294 277.518 136.729 277.541 137.196 277.631L137.503 279.212C136.877 279.09 136.329 279.098 135.858 279.236C135.398 279.376 135.053 279.62 134.824 279.968C134.603 280.308 134.541 280.726 134.638 281.223L135.348 284.876L133.499 284.516ZM142.401 286.39C141.367 286.189 140.494 285.68 139.78 284.862C139.066 284.044 138.586 282.999 138.339 281.727C138.091 280.455 138.187 279.522 138.627 278.928C139.066 278.334 139.802 278.138 140.836 278.339C141.353 278.439 141.838 278.62 142.29 278.88C142.742 279.14 143.146 279.472 143.502 279.876L143.547 279.884L142.761 275.844L144.565 276.195L146.681 287.079L144.967 286.745L144.76 285.83L144.73 285.824C144.508 286.106 144.191 286.298 143.78 286.4C143.378 286.494 142.918 286.491 142.401 286.39ZM142.588 284.992C142.976 285.067 143.304 285.055 143.571 284.953C143.848 284.854 144.049 284.683 144.174 284.439C144.299 284.196 144.327 283.9 144.26 283.552L143.987 282.151C143.918 281.793 143.767 281.462 143.536 281.159C143.303 280.846 143.022 280.581 142.693 280.364C142.364 280.147 142.001 280 141.603 279.923C140.977 279.801 140.532 279.925 140.269 280.295C140.017 280.666 139.969 281.26 140.128 282.075C140.286 282.89 140.577 283.549 141 284.052C141.433 284.557 141.962 284.87 142.588 284.992ZM153.129 288.332L151.013 277.448L152.996 277.833L159.391 286.594L159.42 286.6L157.902 278.787L159.751 279.146L161.866 290.03L159.883 289.645L153.504 280.887L153.474 280.882L154.993 288.694L153.129 288.332ZM167.577 291.284C166.324 291.04 165.287 290.504 164.466 289.675C163.653 288.838 163.122 287.778 162.873 286.496C162.624 285.214 162.769 284.29 163.31 283.726C163.859 283.154 164.759 282.989 166.012 283.233C167.264 283.476 168.302 284.017 169.125 284.856C169.946 285.685 170.481 286.741 170.73 288.023C170.979 289.306 170.83 290.233 170.281 290.805C169.73 291.368 168.829 291.527 167.577 291.284ZM167.293 289.823C167.978 289.956 168.459 289.844 168.733 289.486C169.006 289.118 169.061 288.512 168.896 287.667C168.732 286.822 168.43 286.151 167.989 285.654C167.546 285.147 166.981 284.827 166.296 284.694C165.62 284.562 165.14 284.68 164.858 285.045C164.583 285.403 164.528 286.005 164.692 286.85C164.856 287.694 165.16 288.37 165.602 288.877C166.053 289.376 166.617 289.691 167.293 289.823ZM172.934 292.182L172.525 290.08L174.643 290.491L175.051 292.593L172.934 292.182Z" fill="#595959"/>
<path d="M211.15 376.466L209.034 365.581L216.31 366.996L216.623 368.606L211.211 367.554L211.756 370.357L216.87 371.351L217.177 372.931L212.063 371.937L212.701 375.218L218.113 376.27L218.426 377.88L211.15 376.466ZM219.621 378.112L221.321 374.684L218.143 370.365L220.171 370.759L222.374 373.97L222.403 373.976L223.481 371.402L225.509 371.797L223.826 375.171L227.046 379.555L225.018 379.161L222.777 375.899L222.747 375.894L221.663 378.509L219.621 378.112ZM231.364 372.791C232.397 372.992 233.271 373.501 233.985 374.319C234.698 375.137 235.179 376.182 235.426 377.454C235.674 378.727 235.578 379.66 235.138 380.253C234.699 380.847 233.962 381.043 232.929 380.842C232.422 380.744 231.937 380.564 231.475 380.302C231.021 380.032 230.617 379.7 230.263 379.306L230.233 379.3L231.018 383.34L229.184 382.984L227.069 372.1L228.813 372.439L229.005 373.351L229.035 373.357C229.265 373.067 229.582 372.875 229.984 372.781C230.387 372.687 230.847 372.691 231.364 372.791ZM231.176 374.189C230.799 374.116 230.471 374.129 230.194 374.228C229.917 374.327 229.716 374.498 229.591 374.742C229.474 374.977 229.45 375.274 229.52 375.632L229.792 377.034C229.86 377.381 230.005 377.711 230.228 378.022C230.461 378.335 230.747 378.601 231.087 378.82C231.426 379.039 231.784 379.185 232.162 379.259C232.798 379.382 233.242 379.258 233.495 378.887C233.748 378.515 233.796 377.922 233.637 377.107C233.479 376.291 233.188 375.632 232.765 375.129C232.342 374.626 231.812 374.313 231.176 374.189ZM237.638 381.614L237.229 379.512L239.346 379.924L239.755 382.026L237.638 381.614Z" fill="#595959"/>
<path d="M220.785 406.371C219.541 406.129 218.541 405.558 217.783 404.656C217.026 403.755 216.489 402.491 216.173 400.863C215.857 399.236 215.925 398.089 216.377 397.423C216.83 396.757 217.678 396.544 218.922 396.786C220.166 397.028 221.162 397.599 221.911 398.499C222.668 399.4 223.205 400.664 223.521 402.292C223.838 403.919 223.77 405.066 223.317 405.732C222.873 406.4 222.029 406.613 220.785 406.371ZM220.509 404.953C221.216 405.09 221.679 404.918 221.897 404.435C222.114 403.953 222.111 403.132 221.885 401.974C221.659 400.806 221.331 399.923 220.903 399.323C220.473 398.715 219.905 398.342 219.198 398.205C218.491 398.067 218.024 398.239 217.798 398.72C217.578 399.193 217.582 400.014 217.809 401.181C218.034 402.34 218.361 403.223 218.791 403.832C219.229 404.441 219.802 404.815 220.509 404.953ZM227.134 398.382C227.901 398.532 228.575 398.794 229.156 399.169C229.737 399.544 230.211 400.022 230.578 400.601C230.953 401.183 231.217 401.865 231.37 402.649C231.598 403.825 231.568 404.807 231.278 405.595C230.996 406.376 230.481 406.936 229.736 407.275C228.99 407.613 228.031 407.702 226.86 407.54L226.328 406.194C227.373 406.34 228.19 406.282 228.778 406.019C229.365 405.748 229.741 405.259 229.908 404.554L229.88 404.536C229.608 404.655 229.306 404.728 228.975 404.754C228.652 404.781 228.287 404.755 227.878 404.676C226.932 404.492 226.133 404.07 225.48 403.41C224.835 402.752 224.418 401.933 224.227 400.953C224.095 400.272 224.122 399.715 224.309 399.284C224.496 398.853 224.828 398.561 225.307 398.409C225.784 398.247 226.393 398.238 227.134 398.382ZM227.4 399.75C226.769 399.627 226.316 399.699 226.04 399.965C225.77 400.224 225.693 400.648 225.807 401.236C225.921 401.824 226.168 402.314 226.548 402.708C226.935 403.095 227.427 403.346 228.023 403.462C228.449 403.545 228.802 403.548 229.082 403.471C229.361 403.386 229.555 403.223 229.663 402.981C229.779 402.733 229.801 402.422 229.728 402.047C229.663 401.715 229.535 401.39 229.342 401.074C229.158 400.76 228.904 400.485 228.579 400.25C228.261 400.008 227.868 399.841 227.4 399.75ZM233.322 409.177L235.859 399.71L237.419 400.013L234.881 409.48L233.322 409.177ZM243.919 410.745L242.453 403.205L242.427 403.2L239.531 404.494L238.8 403.011L242.105 401.416L243.728 401.731L245.542 411.06L243.919 410.745ZM252.131 412.341L250.665 404.801L250.64 404.796L247.743 406.09L247.012 404.607L250.317 403.012L251.94 403.327L253.754 412.657L252.131 412.341Z" fill="#424242"/>
<path d="M85.6728 379.985L83.8594 370.656L86.671 371.202C88.0427 371.469 89.0868 371.885 89.8034 372.45C90.5285 373.018 90.9846 373.783 91.1718 374.745C91.3556 375.691 91.1863 376.339 90.664 376.688C90.1502 377.039 89.2713 377.094 88.0274 376.852L85.6503 376.39L85.4119 375.163L87.5844 375.585C88.4535 375.754 89.0565 375.757 89.3935 375.593C89.7374 375.422 89.8564 375.064 89.7504 374.518C89.6444 373.973 89.3722 373.543 88.9339 373.228C88.5025 372.907 87.8523 372.661 86.9833 372.493L85.5136 372.207L87.0786 380.258L85.6728 379.985ZM91.1298 381.046L86.07 375.955L87.8464 376.3L92.9573 381.401L91.1298 381.046ZM94.4839 381.698L92.6705 372.368L98.8048 373.561L99.0483 374.813L94.3197 373.894L94.8215 376.476L99.2945 377.345L99.5329 378.572L95.06 377.702L95.6463 380.718L100.375 381.638L100.618 382.89L94.4839 381.698ZM108.322 384.387L106.509 375.058L107.914 375.331L109.728 384.661L108.322 384.387ZM102.571 383.27L100.758 373.94L102.164 374.214L103.977 383.543L102.571 383.27ZM102.449 379.163L102.201 377.885L107.952 379.003L108.2 380.281L102.449 379.163ZM110.986 384.905L112.572 376.237L114.477 376.607L119.677 386.595L118.13 386.294L113.764 377.624L113.739 377.619L112.533 385.206L110.986 384.905ZM112.295 382.909L112.047 381.631L117.223 382.638L117.471 383.916L112.295 382.909ZM120.93 386.838L119.116 377.509L120.65 377.807L126.464 385.7L126.489 385.705L125.123 378.676L126.529 378.95L128.342 388.279L126.808 387.981L120.995 380.087L120.969 380.082L122.336 387.111L120.93 386.838ZM134.096 389.397L132.283 380.068L135.095 380.615C136.466 380.881 137.51 381.297 138.227 381.863C138.952 382.43 139.408 383.195 139.595 384.158C139.779 385.104 139.61 385.751 139.088 386.101C138.574 386.452 137.695 386.506 136.451 386.264L134.074 385.802L133.836 384.576L136.008 384.998C136.877 385.167 137.48 385.169 137.817 385.005C138.161 384.834 138.28 384.476 138.174 383.931C138.068 383.386 137.796 382.956 137.358 382.641C136.926 382.319 136.276 382.074 135.407 381.905L133.937 381.619L135.502 389.671L134.096 389.397ZM139.553 390.458L134.494 385.367L136.27 385.713L141.381 390.813L139.553 390.458ZM141.987 390.931L143.573 382.263L145.478 382.633L150.678 392.621L149.131 392.32L144.765 383.65L144.74 383.645L143.534 391.232L141.987 390.931ZM143.296 388.935L143.048 387.657L148.224 388.664L148.472 389.942L143.296 388.935ZM152.046 392.886L150.232 383.557L151.689 383.84L153.503 393.17L152.046 392.886ZM161.538 394.732L159.725 385.402L161.131 385.676L162.944 395.005L161.538 394.732ZM155.787 393.614L153.974 384.284L155.38 384.558L157.193 393.887L155.787 393.614ZM155.665 389.507L155.417 388.229L161.168 389.347L161.416 390.625L155.665 389.507ZM164.202 395.249L165.788 386.581L167.693 386.951L172.893 396.939L171.346 396.638L166.98 387.969L166.955 387.964L165.749 395.55L164.202 395.249ZM165.511 393.254L165.263 391.976L170.439 392.982L170.687 394.26L165.511 393.254ZM174.146 397.182L172.332 387.853L173.866 388.151L179.68 396.044L179.705 396.049L178.339 389.021L179.745 389.294L181.558 398.623L180.025 398.325L174.211 390.432L174.185 390.427L175.552 397.456L174.146 397.182Z" fill="#424242"/>
<path fill-rule="evenodd" clip-rule="evenodd" d="M71.5894 217.398C73.6769 215.556 74.6185 212.514 73.8946 208.79C73.1707 205.066 70.9262 201.405 67.9305 198.575C69.7992 196.926 72.5873 196.239 75.921 196.887C82.979 198.259 89.8131 205.093 91.185 212.151C92.5569 219.209 87.9473 223.819 80.8893 222.447C77.5556 221.799 74.2709 219.931 71.5894 217.398ZM71.5894 217.398C69.7207 219.047 66.9326 219.734 63.5989 219.086C56.5409 217.714 49.7068 210.88 48.3349 203.822C46.963 196.764 51.5726 192.154 58.6306 193.526C61.9643 194.174 65.249 196.042 67.9305 198.575C65.843 200.417 64.9014 203.458 65.6253 207.183C66.3492 210.907 68.5937 214.568 71.5894 217.398Z" fill="#424242"/>
<path fill-rule="evenodd" clip-rule="evenodd" d="M375.315 255.322C375.828 255.011 376.685 255.31 377.227 255.99C380.115 259.608 383.876 265.552 385.843 271.742C387.823 277.973 388.001 284.534 383.531 289.092C383.118 289.514 382.278 289.356 381.656 288.74C381.034 288.123 380.865 287.281 381.279 286.859C385.177 282.884 385.062 277.193 383.277 271.576C381.479 265.916 378.002 260.415 375.367 257.114C374.824 256.434 374.801 255.632 375.315 255.322ZM370.506 259.073C371.019 258.761 371.875 259.059 372.418 259.738C374.455 262.285 377.101 266.458 378.487 270.812C379.886 275.21 380.016 279.873 376.83 283.107C376.415 283.527 375.576 283.368 374.954 282.751C374.333 282.134 374.165 281.292 374.58 280.871C377.192 278.22 377.124 274.429 375.922 270.648C374.705 266.825 372.344 263.096 370.561 260.866C370.018 260.187 369.993 259.384 370.506 259.073ZM367.108 263.526C367.618 263.211 368.474 263.506 369.02 264.183C370.13 265.562 371.561 267.803 372.313 270.158C373.08 272.557 373.155 275.152 371.368 276.939C370.95 277.357 370.11 277.193 369.49 276.574C368.871 275.955 368.708 275.114 369.125 274.696C370.333 273.489 370.316 271.77 369.749 269.997C369.168 268.178 368.027 266.384 367.172 265.323C366.626 264.645 366.598 263.841 367.108 263.526ZM364.53 268.318C364.041 268.223 363.722 268.543 363.817 269.032C363.912 269.52 364.386 269.994 364.874 270.089C365.363 270.184 365.683 269.865 365.588 269.376C365.493 268.887 365.019 268.413 364.53 268.318ZM361.162 268.515C360.782 266.56 362.059 265.283 364.014 265.663C365.97 266.043 367.863 267.936 368.243 269.892C368.623 271.847 367.346 273.124 365.391 272.744C363.435 272.364 361.542 270.471 361.162 268.515Z" fill="#424242"/>
<path d="M73.2787 305.362L70.9394 293.327L70.8968 293.319L67.0798 296.246L66.4008 292.752L70.2563 289.813L73.3235 290.409L76.3458 305.958L73.2787 305.362ZM83.8848 307.628C82.692 307.396 81.6935 307.004 80.8892 306.452C80.0992 305.902 79.4498 305.126 78.941 304.126C78.4465 303.128 78.0474 301.848 77.7437 300.286C77.3159 298.085 77.2508 296.344 77.5482 295.063C77.843 293.767 78.5205 292.895 79.5808 292.445C80.6411 291.995 82.1057 291.938 83.9745 292.274L84.4879 294.916C83.6359 294.75 82.8967 294.743 82.2704 294.894C81.6412 295.032 81.1677 295.302 80.8497 295.704C80.5318 296.107 80.4079 296.63 80.478 297.272L80.5632 297.288C80.9194 297.153 81.2667 297.077 81.6052 297.061C81.9436 297.044 82.3187 297.076 82.7305 297.156C84.0937 297.421 85.1762 298.035 85.9781 298.997C86.7913 299.947 87.3677 301.296 87.7072 303.042C88.0909 305.016 87.9835 306.362 87.3851 307.079C86.7981 307.785 85.6313 307.968 83.8848 307.628ZM83.4092 305.076C84.0482 305.201 84.4727 305.064 84.6825 304.668C84.8896 304.257 84.8993 303.569 84.7117 302.604C84.524 301.638 84.2369 300.899 83.8503 300.387C83.4611 299.86 82.9469 299.535 82.3079 299.411C81.6689 299.286 81.2459 299.43 81.0388 299.84C80.8289 300.237 80.8178 300.918 81.0055 301.883C81.1932 302.849 81.4817 303.595 81.871 304.121C82.2575 304.634 82.7702 304.952 83.4092 305.076ZM93.1849 302.755C92.7305 302.666 92.3422 302.461 92.02 302.139C91.6977 301.816 91.4938 301.435 91.4083 300.995C91.3199 300.541 91.3858 300.212 91.6059 300.009C91.8233 299.791 92.1592 299.727 92.6136 299.815C93.068 299.904 93.4563 300.109 93.7785 300.431C94.098 300.739 94.3019 301.12 94.3902 301.575C94.4758 302.015 94.4099 302.344 94.1925 302.561C93.9752 302.778 93.6393 302.843 93.1849 302.755ZM94.5346 309.698C93.3561 309.469 92.3733 309.053 91.5864 308.449C90.7968 307.831 90.1409 306.952 89.6187 305.812C89.0966 304.672 88.6616 303.207 88.3138 301.418L88.0654 300.14C87.7148 298.337 87.5923 296.933 87.6977 295.929C87.8003 294.91 88.1539 294.234 88.7586 293.901C89.3606 293.554 90.2509 293.494 91.4294 293.723C92.5938 293.95 93.5708 294.372 94.3605 294.99C95.1616 295.597 95.8232 296.47 96.3454 297.61C96.8648 298.736 97.2997 300.2 97.6503 302.003L97.8987 303.281C98.2465 305.071 98.3691 306.474 98.2664 307.493C98.1638 308.511 97.8044 309.193 97.1883 309.538C96.5836 309.871 95.699 309.925 94.5346 309.698ZM94.0212 307.057C94.504 307.151 94.8413 307.094 95.033 306.885C95.2247 306.676 95.2956 306.232 95.2455 305.553C95.2069 304.862 95.0551 303.835 94.7901 302.472L94.6245 301.62C94.3595 300.257 94.1097 299.218 93.8751 298.503C93.6519 297.776 93.3947 297.262 93.1037 296.959C92.8126 296.657 92.4256 296.458 91.9428 296.365C91.4742 296.274 91.137 296.331 90.9311 296.537C90.7394 296.746 90.6628 297.195 90.7014 297.886C90.7515 298.565 90.909 299.586 91.174 300.95L91.3396 301.802C91.6045 303.165 91.8486 304.21 92.0718 304.936C92.3065 305.651 92.5694 306.16 92.8604 306.463C93.1657 306.768 93.5527 306.966 94.0212 307.057ZM100.386 308.171C101.15 307.322 101.788 306.558 102.298 305.879C102.805 305.185 103.201 304.551 103.486 303.978C103.768 303.391 103.949 302.845 104.028 302.341C104.108 301.838 104.101 301.344 104.007 300.862C103.861 300.109 103.59 299.524 103.194 299.105C102.799 298.687 102.253 298.41 101.557 298.274C100.649 298.098 99.6275 298.152 98.4942 298.437L97.956 295.668C98.9299 295.407 100.184 295.425 101.717 295.723C103.265 296.024 104.473 296.614 105.34 297.493C106.205 298.358 106.79 299.572 107.093 301.134C107.22 301.787 107.258 302.436 107.206 303.082C107.165 303.716 107.029 304.353 106.798 304.991C106.567 305.629 106.247 306.271 105.84 306.916C105.447 307.563 104.951 308.212 104.353 308.86L104.369 308.946L108.906 309.827L109.403 312.383L100.883 310.727L100.386 308.171ZM135.784 311.035C135.33 310.947 134.942 310.741 134.619 310.419C134.297 310.097 134.093 309.716 134.008 309.276C133.919 308.821 133.985 308.492 134.205 308.289C134.423 308.072 134.759 308.007 135.213 308.096C135.667 308.184 136.056 308.389 136.378 308.712C136.697 309.02 136.901 309.401 136.99 309.855C137.075 310.295 137.009 310.624 136.792 310.842C136.575 311.059 136.239 311.123 135.784 311.035ZM137.134 317.979C135.956 317.75 134.973 317.333 134.186 316.729C133.396 316.111 132.74 315.232 132.218 314.092C131.696 312.953 131.261 311.488 130.913 309.699L130.665 308.421C130.314 306.617 130.192 305.214 130.297 304.209C130.4 303.191 130.753 302.515 131.358 302.182C131.96 301.834 132.85 301.775 134.029 302.004C135.193 302.23 136.17 302.652 136.96 303.271C137.761 303.877 138.423 304.75 138.945 305.89C139.464 307.016 139.899 308.481 140.25 310.284L140.498 311.562C140.846 313.351 140.969 314.755 140.866 315.773C140.763 316.792 140.404 317.473 139.788 317.818C139.183 318.152 138.299 318.205 137.134 317.979ZM136.621 315.338C137.104 315.431 137.441 315.374 137.633 315.165C137.824 314.957 137.895 314.513 137.845 313.834C137.806 313.143 137.655 312.116 137.39 310.753L137.224 309.901C136.959 308.538 136.709 307.498 136.475 306.783C136.251 306.057 135.994 305.542 135.703 305.24C135.412 304.937 135.025 304.739 134.542 304.645C134.074 304.554 133.736 304.611 133.531 304.817C133.339 305.026 133.262 305.476 133.301 306.166C133.351 306.846 133.508 307.867 133.773 309.23L133.939 310.082C134.204 311.445 134.448 312.49 134.671 313.217C134.906 313.932 135.169 314.441 135.46 314.743C135.765 315.048 136.152 315.247 136.621 315.338ZM144.679 304.074C145.886 304.309 146.884 304.701 147.674 305.251C148.464 305.801 149.107 306.574 149.601 307.572C150.11 308.573 150.516 309.854 150.82 311.416C151.245 313.603 151.31 315.344 151.015 316.64C150.721 317.935 150.043 318.807 148.983 319.257C147.937 319.71 146.472 319.767 144.589 319.428L144.076 316.787C144.942 316.955 145.682 316.969 146.297 316.829C146.924 316.678 147.396 316.401 147.714 315.998C148.029 315.581 148.153 315.058 148.086 314.43L148 314.414C147.644 314.55 147.297 314.626 146.958 314.642C146.62 314.658 146.245 314.626 145.833 314.546C144.47 314.281 143.382 313.673 142.568 312.723C141.767 311.761 141.196 310.406 140.856 308.66C140.473 306.686 140.574 305.346 141.161 304.641C141.76 303.923 142.932 303.735 144.679 304.074ZM145.154 306.626C144.515 306.502 144.092 306.645 143.885 307.056C143.675 307.452 143.664 308.133 143.852 309.099C144.04 310.064 144.328 310.81 144.717 311.337C145.104 311.849 145.617 312.167 146.256 312.292C146.895 312.416 147.319 312.28 147.529 311.883C147.736 311.473 147.746 310.785 147.558 309.819C147.37 308.853 147.083 308.114 146.697 307.602C146.307 307.076 145.793 306.75 145.154 306.626ZM158.478 321.923L156.138 309.888L156.096 309.88L152.279 312.807L151.6 309.313L155.455 306.374L158.522 306.97L161.545 322.519L158.478 321.923ZM169.128 323.993L166.788 311.958L166.746 311.95L162.929 314.877L162.25 311.384L166.105 308.444L169.172 309.04L172.195 324.589L169.128 323.993ZM196.235 326.803C196.999 325.954 197.636 325.189 198.146 324.51C198.654 323.816 199.05 323.182 199.335 322.609C199.617 322.022 199.798 321.476 199.877 320.973C199.957 320.469 199.95 319.976 199.856 319.493C199.71 318.74 199.439 318.155 199.043 317.736C198.648 317.318 198.102 317.041 197.406 316.906C196.497 316.729 195.476 316.783 194.343 317.069L193.805 314.3C194.779 314.038 196.033 314.056 197.566 314.354C199.114 314.655 200.322 315.245 201.189 316.124C202.054 316.989 202.639 318.203 202.942 319.765C203.069 320.418 203.107 321.067 203.055 321.713C203.014 322.347 202.878 322.984 202.647 323.622C202.416 324.26 202.096 324.902 201.689 325.547C201.295 326.194 200.8 326.843 200.202 327.492L200.218 327.577L204.755 328.459L205.252 331.015L196.732 329.358L196.235 326.803ZM210.334 325.526C209.879 325.438 209.491 325.232 209.169 324.91C208.846 324.588 208.642 324.207 208.557 323.766C208.469 323.312 208.534 322.983 208.755 322.78C208.972 322.563 209.308 322.498 209.762 322.587C210.217 322.675 210.605 322.88 210.927 323.202C211.247 323.51 211.451 323.892 211.539 324.346C211.624 324.786 211.559 325.115 211.341 325.332C211.124 325.55 210.788 325.614 210.334 325.526ZM211.683 332.47C210.505 332.241 209.522 331.824 208.735 331.22C207.945 330.602 207.29 329.723 206.767 328.583C206.245 327.443 205.81 325.979 205.462 324.19L205.214 322.912C204.863 321.108 204.741 319.705 204.846 318.7C204.949 317.682 205.303 317.006 205.907 316.673C206.509 316.325 207.399 316.266 208.578 316.495C209.742 316.721 210.719 317.143 211.509 317.761C212.31 318.368 212.972 319.241 213.494 320.381C214.013 321.507 214.448 322.971 214.799 324.775L215.047 326.053C215.395 327.842 215.518 329.246 215.415 330.264C215.312 331.283 214.953 331.964 214.337 332.309C213.732 332.642 212.848 332.696 211.683 332.47ZM211.17 329.829C211.653 329.922 211.99 329.865 212.182 329.656C212.373 329.448 212.444 329.004 212.394 328.324C212.356 327.634 212.204 326.607 211.939 325.244L211.773 324.392C211.508 323.028 211.258 321.989 211.024 321.274C210.8 320.548 210.543 320.033 210.252 319.731C209.961 319.428 209.574 319.23 209.091 319.136C208.623 319.045 208.286 319.102 208.08 319.308C207.888 319.517 207.811 319.967 207.85 320.657C207.9 321.337 208.058 322.358 208.323 323.721L208.488 324.573C208.753 325.936 208.997 326.981 209.22 327.708C209.455 328.423 209.718 328.931 210.009 329.234C210.314 329.539 210.701 329.737 211.17 329.829ZM222.377 334.343L220.038 322.309L219.995 322.301L216.178 325.227L215.499 321.734L219.355 318.795L222.422 319.391L225.444 334.94L222.377 334.343ZM229.878 320.635C231.085 320.87 232.083 321.262 232.873 321.812C233.663 322.362 234.306 323.135 234.8 324.133C235.309 325.134 235.715 326.415 236.019 327.977C236.444 330.164 236.509 331.905 236.214 333.201C235.92 334.496 235.242 335.368 234.182 335.818C233.136 336.271 231.671 336.328 229.788 335.989L229.275 333.348C230.141 333.516 230.881 333.53 231.496 333.39C232.123 333.239 232.595 332.962 232.913 332.559C233.228 332.142 233.352 331.619 233.285 330.991L233.199 330.975C232.843 331.111 232.496 331.187 232.157 331.203C231.819 331.219 231.444 331.187 231.032 331.107C229.669 330.842 228.581 330.234 227.767 329.284C226.966 328.322 226.395 326.967 226.055 325.221C225.672 323.247 225.773 321.907 226.36 321.202C226.959 320.484 228.131 320.296 229.878 320.635ZM230.353 323.187C229.714 323.063 229.291 323.206 229.084 323.617C228.874 324.013 228.863 324.694 229.051 325.66C229.239 326.625 229.527 327.371 229.916 327.898C230.303 328.41 230.816 328.728 231.455 328.853C232.094 328.977 232.518 328.841 232.728 328.444C232.935 328.034 232.945 327.346 232.757 326.38C232.569 325.414 232.282 324.675 231.896 324.163C231.506 323.637 230.992 323.311 230.353 323.187ZM260.134 339.223C260.899 338.374 261.536 337.61 262.046 336.93C262.553 336.237 262.949 335.603 263.234 335.03C263.516 334.443 263.697 333.897 263.777 333.393C263.856 332.89 263.849 332.396 263.755 331.914C263.609 331.161 263.338 330.575 262.943 330.157C262.547 329.738 262.001 329.462 261.305 329.326C260.397 329.15 259.376 329.204 258.242 329.489L257.704 326.72C258.678 326.459 259.932 326.477 261.465 326.775C263.013 327.076 264.221 327.666 265.089 328.545C265.954 329.41 266.538 330.624 266.841 332.186C266.968 332.839 267.006 333.488 266.954 334.134C266.913 334.768 266.777 335.404 266.546 336.043C266.315 336.681 265.995 337.322 265.588 337.967C265.195 338.615 264.699 339.263 264.101 339.912L264.118 339.998L268.654 340.879L269.151 343.435L260.631 341.779L260.134 339.223ZM274.233 337.947C273.778 337.858 273.39 337.653 273.068 337.331C272.746 337.009 272.542 336.627 272.456 336.187C272.368 335.733 272.434 335.404 272.654 335.201C272.871 334.984 273.207 334.919 273.661 335.007C274.116 335.096 274.504 335.301 274.826 335.623C275.146 335.931 275.35 336.312 275.438 336.767C275.524 337.207 275.458 337.536 275.24 337.753C275.023 337.971 274.687 338.035 274.233 337.947ZM275.583 344.89C274.404 344.661 273.421 344.245 272.634 343.641C271.845 343.023 271.189 342.144 270.667 341.004C270.144 339.864 269.709 338.4 269.362 336.61L269.113 335.332C268.763 333.529 268.64 332.125 268.746 331.121C268.848 330.103 269.202 329.427 269.807 329.093C270.408 328.746 271.299 328.687 272.477 328.916C273.642 329.142 274.619 329.564 275.408 330.182C276.209 330.789 276.871 331.662 277.393 332.802C277.913 333.928 278.348 335.392 278.698 337.196L278.947 338.474C279.294 340.263 279.417 341.667 279.314 342.685C279.212 343.703 278.852 344.385 278.236 344.73C277.631 345.063 276.747 345.117 275.583 344.89ZM275.069 342.249C275.552 342.343 275.889 342.286 276.081 342.077C276.273 341.868 276.343 341.424 276.293 340.745C276.255 340.054 276.103 339.028 275.838 337.664L275.672 336.812C275.407 335.449 275.158 334.41 274.923 333.695C274.7 332.968 274.443 332.454 274.152 332.151C273.86 331.849 273.474 331.651 272.991 331.557C272.522 331.466 272.185 331.523 271.979 331.729C271.787 331.938 271.711 332.387 271.749 333.078C271.799 333.757 271.957 334.778 272.222 336.142L272.387 336.994C272.652 338.357 272.897 339.402 273.12 340.128C273.354 340.843 273.617 341.352 273.908 341.655C274.214 341.96 274.601 342.158 275.069 342.249ZM281.434 343.364C282.198 342.515 282.835 341.75 283.345 341.071C283.853 340.377 284.249 339.743 284.534 339.17C284.816 338.583 284.997 338.037 285.076 337.534C285.156 337.03 285.149 336.537 285.055 336.054C284.909 335.301 284.638 334.716 284.242 334.297C283.847 333.879 283.301 333.602 282.605 333.467C281.696 333.29 280.675 333.344 279.542 333.63L279.004 330.861C279.978 330.599 281.232 330.617 282.765 330.915C284.313 331.216 285.521 331.806 286.388 332.685C287.253 333.55 287.838 334.764 288.141 336.326C288.268 336.979 288.306 337.628 288.254 338.274C288.213 338.908 288.077 339.545 287.846 340.183C287.615 340.821 287.295 341.463 286.888 342.108C286.494 342.755 285.999 343.404 285.401 344.053L285.417 344.138L289.954 345.02L290.451 347.576L281.931 345.92L281.434 343.364ZM296.926 348.834L294.587 336.8L294.544 336.792L290.727 339.718L290.048 336.225L293.904 333.285L296.971 333.882L299.993 349.43L296.926 348.834Z" fill="#424242"/>
<path d="M374.648 416.97C374.522 416.321 374.946 415.897 375.595 416.023L385.584 417.965C386.233 418.091 386.861 418.72 386.987 419.369L388.442 426.853C388.53 427.306 388.35 427.668 387.979 427.783L383.446 429.191C383.156 429.281 382.785 429.209 382.436 428.995L376.979 425.645C376.532 425.371 376.191 424.907 376.103 424.454L374.648 416.97Z" fill="#424242"/>
<path d="M393.451 420.625C393.325 419.976 393.749 419.552 394.398 419.678L397.335 420.249C397.984 420.375 398.613 421.004 398.739 421.653L399.196 424.003C399.322 424.652 398.898 425.076 398.249 424.95L395.311 424.379C394.662 424.253 394.034 423.624 393.908 422.975L393.451 420.625Z" fill="#424242"/>
<path d="M405.202 422.909C405.076 422.26 405.5 421.836 406.149 421.962L416.138 423.904C416.787 424.03 417.415 424.659 417.542 425.308L418.912 432.359C419.038 433.008 418.614 433.432 417.965 433.305L407.977 431.364C407.328 431.238 406.699 430.609 406.573 429.96L405.202 422.909Z" fill="#424242"/>
<path d="M377.047 429.309C376.921 428.66 377.344 428.236 377.993 428.363L387.982 430.304C388.631 430.43 389.26 431.059 389.386 431.708L390.756 438.759C390.883 439.408 390.459 439.832 389.81 439.705L379.821 437.764C379.172 437.638 378.543 437.009 378.417 436.36L377.047 429.309Z" fill="#424242"/>
<path d="M391.41 427.578C391.284 426.929 391.708 426.505 392.357 426.631L402.346 428.573C402.995 428.699 403.623 429.328 403.749 429.977L406.947 446.429C407.073 447.078 406.65 447.502 406.001 447.376L396.012 445.434C395.363 445.308 394.734 444.679 394.608 444.03L391.41 427.578Z" fill="#424242"/>
<path d="M407.601 435.248C407.475 434.599 407.899 434.175 408.548 434.302L418.536 436.243C419.185 436.369 419.814 436.998 419.94 437.647L421.311 444.698C421.437 445.347 421.013 445.771 420.364 445.645L410.375 443.703C409.726 443.577 409.098 442.948 408.971 442.299L407.601 435.248Z" fill="#424242"/>
<path d="M379.445 441.648C379.319 440.999 379.743 440.576 380.392 440.702L390.381 442.643C391.03 442.769 391.658 443.398 391.784 444.047L393.155 451.098C393.281 451.747 392.857 452.171 392.208 452.045L382.219 450.103C381.57 449.977 380.942 449.348 380.816 448.699L379.445 441.648Z" fill="#424242"/>
<path d="M399.161 450.004C399.035 449.355 399.459 448.931 400.108 449.057L403.046 449.628C403.695 449.754 404.324 450.383 404.45 451.032L404.907 453.382C405.033 454.031 404.609 454.455 403.96 454.329L401.022 453.758C400.373 453.632 399.745 453.003 399.618 452.354L399.161 450.004Z" fill="#424242"/>
<path d="M409.915 447.154C409.827 446.701 410.007 446.339 410.379 446.224L414.911 444.816C415.201 444.726 415.572 444.798 415.921 445.013L421.378 448.362C421.825 448.636 422.166 449.1 422.254 449.553L423.709 457.037C423.835 457.686 423.411 458.11 422.762 457.984L412.774 456.042C412.125 455.916 411.496 455.287 411.37 454.638L409.915 447.154Z" fill="#424242"/>
<g filter="url(#filter0_b_18_11)">
<rect width="412.27" height="260.381" rx="34.7175" transform="matrix(1 0 0.0348995 0.999391 20.8482 1.39209)" fill="white" fill-opacity="0.1"/>
<rect width="412.27" height="260.381" rx="34.7175" transform="matrix(1 0 0.0348995 0.999391 20.8482 1.39209)" stroke="url(#paint1_linear_18_11)" stroke-opacity="0.5" stroke-width="2.16984"/>
</g>
<path d="M72.2749 196.116L71.8879 185.035H73.908L79.1525 192.989H79.1829L78.9052 185.035H80.7886L81.1755 196.116H79.1554L73.9261 188.162H73.8957L74.1735 196.116H72.2749ZM85.4041 196.268C84.6142 196.268 83.9841 196.055 83.5136 195.63C83.0528 195.195 82.8096 194.608 82.7838 193.869C82.7516 192.948 83.0863 192.24 83.788 191.744C84.4896 191.248 85.5037 191 86.8302 191H87.9389C87.9255 190.616 87.8646 190.322 87.7563 190.12C87.6578 189.907 87.4906 189.761 87.2549 189.68C87.0293 189.599 86.7089 189.558 86.2937 189.558C85.7875 189.558 85.2627 189.609 84.7194 189.71C84.1863 189.811 83.6853 189.963 83.2164 190.165L82.922 188.693C83.4317 188.501 83.9985 188.349 84.6224 188.238C85.2463 188.126 85.8722 188.071 86.5 188.071C87.3 188.071 87.9311 188.167 88.3935 188.359C88.866 188.551 89.2115 188.875 89.4299 189.33C89.6483 189.786 89.7706 190.388 89.7968 191.137L89.9706 196.116H88.1935L88.1465 195.205H88.1162C87.8537 195.519 87.4678 195.777 86.9585 195.979C86.4487 196.171 85.9306 196.268 85.4041 196.268ZM86.0215 194.81C86.3962 194.81 86.7381 194.745 87.0474 194.613C87.3564 194.471 87.5979 194.284 87.7721 194.051C87.9462 193.819 88.0282 193.555 88.0179 193.262L87.9845 192.306H87.1491C86.2783 192.306 85.6242 192.422 85.1868 192.655C84.7591 192.877 84.5534 193.221 84.5697 193.687C84.5817 194.031 84.7128 194.304 84.9629 194.507C85.2129 194.709 85.5658 194.81 86.0215 194.81ZM91.9701 196.116L91.6945 188.222H93.426L93.4887 189.148H93.5191C93.7906 188.804 94.1206 188.541 94.5092 188.359C94.8974 188.167 95.3547 188.071 95.8813 188.071C96.3977 188.071 96.8365 188.167 97.1976 188.359C97.5685 188.541 97.8359 188.804 97.9998 189.148H98.0302C98.3209 188.774 98.6607 188.501 99.0496 188.329C99.4385 188.157 99.9013 188.071 100.438 188.071C101.289 188.071 101.914 188.298 102.315 188.754C102.715 189.199 102.932 189.902 102.966 190.864L103.149 196.116H101.342L101.174 191.319C101.153 190.722 101.042 190.287 100.84 190.014C100.638 189.74 100.324 189.604 99.8991 189.604C99.3928 189.604 98.9987 189.771 98.7167 190.105C98.4347 190.439 98.3034 190.884 98.3229 191.44L98.4861 196.116H96.6635L96.4912 191.182C96.4732 190.666 96.3532 190.277 96.1314 190.014C95.9092 189.74 95.6007 189.604 95.2058 189.604C94.902 189.604 94.6263 189.685 94.3789 189.847C94.1415 190.008 93.9516 190.226 93.8093 190.499C93.6771 190.773 93.6171 191.086 93.6295 191.44L93.7928 196.116H91.9701ZM108.959 196.268C107.562 196.268 106.476 195.913 105.702 195.205C104.928 194.497 104.518 193.485 104.472 192.169C104.427 190.894 104.737 189.892 105.4 189.163C106.073 188.435 107.012 188.071 108.217 188.071C109.382 188.071 110.295 188.415 110.957 189.103C111.619 189.791 111.972 190.767 112.016 192.032C112.021 192.174 112.021 192.331 112.017 192.503C112.013 192.675 112.007 192.802 112 192.882H105.53L105.483 191.531H110.525L110.266 191.941C110.237 191.112 110.054 190.499 109.716 190.105C109.388 189.7 108.905 189.497 108.267 189.497C107.589 189.497 107.08 189.71 106.74 190.135C106.41 190.55 106.26 191.167 106.288 191.987L106.307 192.518C106.334 193.287 106.556 193.859 106.974 194.233C107.392 194.598 108.011 194.78 108.831 194.78C109.256 194.78 109.711 194.739 110.194 194.658C110.677 194.567 111.103 194.451 111.473 194.309L111.752 195.767C111.372 195.918 110.936 196.04 110.443 196.131C109.95 196.222 109.455 196.268 108.959 196.268Z" fill="#EDEDED"/>
<path d="M74.4841 110.61C73.2791 110.61 72.2333 110.383 71.3465 109.927C70.4598 109.472 69.7687 108.819 69.2732 107.969C68.7879 107.119 68.5245 106.102 68.4832 104.918C68.4415 103.724 68.6338 102.707 69.0601 101.867C69.4962 101.017 70.1418 100.364 70.9967 99.9087C71.8516 99.4533 72.8816 99.2256 74.0865 99.2256C75.4637 99.2256 76.6943 99.5241 77.7783 100.121L77.3962 101.791C76.3428 101.204 75.2795 100.911 74.2061 100.911C73.4062 100.911 72.7182 101.072 72.1422 101.396C71.5659 101.71 71.1312 102.165 70.8381 102.762C70.5451 103.36 70.4132 104.078 70.4425 104.918C70.4715 105.748 70.6536 106.466 70.9887 107.073C71.3234 107.671 71.7901 108.131 72.3887 108.455C72.987 108.769 73.6861 108.925 74.486 108.925C75.529 108.925 76.5718 108.632 77.6146 108.045L78.1134 109.715C77.071 110.312 75.8612 110.61 74.4841 110.61ZM79.9907 110.459L79.7151 102.565H81.5074L81.5745 104.053H81.6049C81.8561 103.709 82.1547 103.415 82.5007 103.172C82.8564 102.919 83.2498 102.732 83.681 102.611C84.1118 102.479 84.5652 102.413 85.0411 102.413L85.0973 104.022C84.4593 104.022 83.8813 104.144 83.3633 104.387C82.8553 104.63 82.4516 104.958 82.1522 105.373C81.8626 105.778 81.7266 106.234 81.7443 106.74L81.8741 110.459H79.9907ZM90.0379 110.61C88.6405 110.61 87.5548 110.256 86.7807 109.548C86.0067 108.839 85.5967 107.827 85.5507 106.512C85.5062 105.237 85.8155 104.235 86.4786 103.506C87.1519 102.778 88.091 102.413 89.296 102.413C90.4605 102.413 91.3737 102.757 92.0356 103.446C92.6976 104.134 93.0507 105.11 93.0949 106.375C93.0998 106.517 93.1002 106.674 93.0961 106.846C93.092 107.018 93.0863 107.144 93.079 107.225H86.6085L86.5613 105.874H91.604L91.3449 106.284C91.316 105.454 91.1326 104.842 90.7948 104.447C90.4667 104.043 89.9837 103.84 89.3458 103.84C88.6674 103.84 88.1584 104.053 87.8188 104.478C87.489 104.893 87.3384 105.51 87.367 106.33L87.3856 106.861C87.4125 107.63 87.6349 108.202 88.0531 108.576C88.4708 108.941 89.0898 109.123 89.91 109.123C90.3353 109.123 90.7895 109.082 91.2728 109.001C91.7556 108.91 92.1819 108.794 92.5516 108.652L92.8303 110.109C92.4509 110.261 92.0146 110.383 91.5216 110.474C91.0286 110.565 90.5341 110.61 90.0379 110.61ZM97.7572 110.61C96.7041 110.61 95.8713 110.251 95.2589 109.533C94.6465 108.814 94.3177 107.807 94.2725 106.512C94.2273 105.216 94.4857 104.21 95.048 103.491C95.6102 102.773 96.4178 102.413 97.4709 102.413C97.9975 102.413 98.4766 102.504 98.9082 102.687C99.3399 102.869 99.7087 103.137 100.015 103.491H100.06L99.9166 99.3774H101.754L102.141 110.459H100.395L100.332 109.533H100.302C100.02 109.877 99.6547 110.145 99.2058 110.337C98.7666 110.519 98.2837 110.61 97.7572 110.61ZM98.1902 109.092C98.5851 109.092 98.9316 109.011 99.2298 108.849C99.538 108.688 99.7783 108.465 99.9507 108.182C100.123 107.898 100.203 107.579 100.191 107.225L100.141 105.798C100.128 105.434 100.026 105.115 99.8341 104.842C99.6419 104.559 99.3911 104.336 99.0817 104.174C98.7722 104.012 98.415 103.931 98.01 103.931C97.372 103.931 96.8836 104.154 96.5448 104.599C96.2161 105.044 96.0662 105.682 96.0952 106.512C96.1241 107.342 96.3185 107.979 96.6784 108.424C97.0483 108.87 97.5523 109.092 98.1902 109.092ZM104.173 101.169L104.111 99.3774H105.994L106.057 101.169H104.173ZM104.498 110.459L104.223 102.611H106.107L106.381 110.459H104.498ZM112.282 110.61C111.35 110.61 110.67 110.418 110.241 110.033C109.813 109.649 109.583 109.022 109.553 108.151L109.41 104.053H107.648L107.596 102.565H109.358L109.268 99.9846H111.151L111.241 102.565H113.899L113.951 104.053H111.293L111.42 107.681C111.437 108.187 111.531 108.541 111.7 108.743C111.879 108.935 112.181 109.032 112.606 109.032C112.829 109.032 113.061 109.011 113.303 108.971C113.544 108.93 113.76 108.875 113.95 108.804L114.171 110.337C113.83 110.438 113.508 110.509 113.206 110.55C112.904 110.59 112.595 110.61 112.282 110.61ZM125.569 110.61C124.364 110.61 123.318 110.383 122.431 109.927C121.544 109.472 120.853 108.819 120.358 107.969C119.872 107.119 119.609 106.102 119.568 104.918C119.526 103.724 119.718 102.707 120.145 101.867C120.581 101.017 121.226 100.364 122.081 99.9087C122.936 99.4533 123.966 99.2256 125.171 99.2256C126.548 99.2256 127.779 99.5241 128.863 100.121L128.481 101.791C127.427 101.204 126.364 100.911 125.291 100.911C124.491 100.911 123.803 101.072 123.227 101.396C122.65 101.71 122.216 102.165 121.923 102.762C121.63 103.36 121.498 104.078 121.527 104.918C121.556 105.748 121.738 106.466 122.073 107.073C122.408 107.671 122.875 108.131 123.473 108.455C124.071 108.769 124.771 108.925 125.571 108.925C126.613 108.925 127.656 108.632 128.699 108.045L129.198 109.715C128.155 110.312 126.946 110.61 125.569 110.61ZM132.875 110.61C132.085 110.61 131.455 110.398 130.984 109.973C130.524 109.538 130.28 108.951 130.255 108.212C130.222 107.291 130.557 106.583 131.259 106.087C131.96 105.591 132.975 105.343 134.301 105.343H135.41C135.396 104.958 135.336 104.665 135.227 104.463C135.129 104.25 134.961 104.103 134.726 104.022C134.5 103.941 134.18 103.901 133.765 103.901C133.258 103.901 132.734 103.952 132.19 104.053C131.657 104.154 131.156 104.306 130.687 104.508L130.393 103.036C130.903 102.843 131.469 102.692 132.093 102.58C132.717 102.469 133.343 102.413 133.971 102.413C134.771 102.413 135.402 102.509 135.864 102.702C136.337 102.894 136.682 103.218 136.901 103.673C137.119 104.129 137.241 104.731 137.268 105.48L137.441 110.459H135.664L135.617 109.548H135.587C135.325 109.861 134.939 110.12 134.429 110.322C133.92 110.514 133.401 110.61 132.875 110.61ZM133.492 109.153C133.867 109.153 134.209 109.087 134.518 108.956C134.827 108.814 135.069 108.627 135.243 108.394C135.417 108.161 135.499 107.898 135.489 107.605L135.455 106.648H134.62C133.749 106.648 133.095 106.765 132.658 106.998C132.23 107.22 132.024 107.564 132.041 108.03C132.053 108.374 132.184 108.647 132.434 108.849C132.684 109.052 133.037 109.153 133.492 109.153ZM139.441 110.459L139.165 102.565H140.958L141.025 104.053H141.055C141.306 103.709 141.605 103.415 141.951 103.172C142.307 102.919 142.7 102.732 143.131 102.611C143.562 102.479 144.015 102.413 144.491 102.413L144.548 104.022C143.91 104.022 143.332 104.144 142.814 104.387C142.306 104.63 141.902 104.958 141.602 105.373C141.313 105.778 141.177 106.234 141.195 106.74L141.324 110.459H139.441ZM148.486 110.61C147.433 110.61 146.6 110.251 145.987 109.533C145.375 108.814 145.046 107.807 145.001 106.512C144.956 105.216 145.214 104.21 145.776 103.491C146.339 102.773 147.146 102.413 148.199 102.413C148.726 102.413 149.205 102.504 149.637 102.687C150.068 102.869 150.437 103.137 150.743 103.491H150.789L150.645 99.3774H152.483L152.87 110.459H151.123L151.061 109.533H151.03C150.749 109.877 150.383 110.145 149.934 110.337C149.495 110.519 149.012 110.61 148.486 110.61ZM148.919 109.092C149.314 109.092 149.66 109.011 149.958 108.849C150.267 108.688 150.507 108.465 150.679 108.182C150.852 107.898 150.932 107.579 150.919 107.225L150.869 105.798C150.857 105.434 150.754 105.115 150.563 104.842C150.37 104.559 150.12 104.336 149.81 104.174C149.501 104.012 149.144 103.931 148.738 103.931C148.101 103.931 147.612 104.154 147.273 104.599C146.945 105.044 146.795 105.682 146.824 106.512C146.853 107.342 147.047 107.979 147.407 108.424C147.777 108.87 148.281 109.092 148.919 109.092ZM159.439 110.459L159.052 99.3774H161.072L166.316 107.332H166.347L166.069 99.3774H167.952L168.339 110.459H166.319L161.09 102.504H161.059L161.337 110.459H159.439ZM174.132 110.61C172.856 110.61 171.857 110.256 171.133 109.548C170.42 108.829 170.04 107.817 169.994 106.512C169.949 105.206 170.258 104.199 170.922 103.491C171.595 102.773 172.57 102.413 173.846 102.413C175.122 102.413 176.122 102.773 176.845 103.491C177.569 104.199 177.953 105.206 177.999 106.512C178.045 107.817 177.731 108.829 177.057 109.548C176.383 110.256 175.408 110.61 174.132 110.61ZM174.08 109.123C174.779 109.123 175.303 108.905 175.652 108.47C176.001 108.025 176.161 107.372 176.131 106.512C176.101 105.652 175.896 105.004 175.516 104.569C175.136 104.124 174.597 103.901 173.898 103.901C173.209 103.901 172.686 104.124 172.326 104.569C171.977 105.004 171.817 105.652 171.847 106.512C171.878 107.372 172.083 108.025 172.463 108.47C172.853 108.905 173.392 109.123 174.08 109.123ZM179.614 110.459L179.539 108.318H181.696L181.771 110.459H179.614Z" fill="#EDEDED"/>
<path d="M205.569 191.778L205.182 180.697H212.594L212.652 182.337H207.138L207.238 185.19H212.447L212.504 186.799H207.294L207.41 190.139H212.924L212.981 191.778H205.569ZM214.198 191.778L216.566 187.801L213.953 183.885H216.019L217.793 186.83H217.823L219.391 183.885H221.457L219.118 187.801L221.763 191.778H219.697L217.891 188.788H217.861L216.279 191.778H214.198ZM227.445 183.733C228.498 183.733 229.331 184.092 229.943 184.811C230.556 185.529 230.884 186.536 230.93 187.832C230.975 189.127 230.716 190.134 230.154 190.852C229.592 191.571 228.784 191.93 227.731 191.93C227.215 191.93 226.736 191.839 226.294 191.657C225.862 191.465 225.493 191.196 225.187 190.852H225.157L225.301 194.966H223.433L223.046 183.885H224.823L224.87 184.811H224.901C225.192 184.457 225.557 184.189 225.996 184.006C226.436 183.824 226.918 183.733 227.445 183.733ZM227.012 185.251C226.627 185.251 226.281 185.332 225.972 185.494C225.664 185.656 225.424 185.879 225.252 186.162C225.089 186.435 225.014 186.754 225.027 187.118L225.077 188.545C225.089 188.899 225.186 189.218 225.368 189.501C225.56 189.785 225.816 190.007 226.136 190.169C226.455 190.331 226.807 190.412 227.192 190.412C227.84 190.412 228.329 190.19 228.657 189.744C228.986 189.299 229.136 188.661 229.107 187.832C229.078 187.002 228.884 186.364 228.524 185.919C228.164 185.474 227.66 185.251 227.012 185.251ZM232.553 191.778L232.478 189.638H234.635L234.71 191.778H232.553Z" fill="#EDEDED"/>
<path d="M210.652 221.438C209.385 221.438 208.429 221.039 207.785 220.241C207.141 219.443 206.79 218.215 206.732 216.559C206.674 214.902 206.94 213.675 207.528 212.877C208.116 212.079 209.044 211.68 210.311 211.68C211.578 211.68 212.53 212.079 213.165 212.877C213.809 213.675 214.16 214.902 214.218 216.559C214.276 218.215 214.011 219.443 213.422 220.241C212.843 221.039 211.919 221.438 210.652 221.438ZM210.602 219.994C211.322 219.994 211.837 219.716 212.148 219.161C212.458 218.606 212.593 217.738 212.552 216.559C212.51 215.37 212.315 214.503 211.966 213.956C211.617 213.401 211.082 213.124 210.362 213.124C209.641 213.124 209.122 213.401 208.802 213.956C208.492 214.503 208.357 215.37 208.399 216.559C208.44 217.738 208.635 218.606 208.984 219.161C209.342 219.716 209.881 219.994 210.602 219.994ZM218.677 211.68C219.458 211.68 220.123 211.818 220.67 212.096C221.218 212.373 221.636 212.781 221.924 213.319C222.22 213.857 222.383 214.525 222.411 215.323C222.452 216.52 222.254 217.565 221.817 218.458C221.388 219.343 220.753 220.041 219.911 220.553C219.07 221.065 218.047 221.355 216.843 221.425L216.511 220.111C217.585 220.05 218.454 219.82 219.117 219.421C219.779 219.013 220.258 218.419 220.552 217.639L220.525 217.626C220.219 217.808 219.89 217.947 219.537 218.042C219.193 218.137 218.813 218.185 218.396 218.185C217.433 218.185 216.664 217.903 216.089 217.339C215.522 216.776 215.221 215.995 215.187 214.997C215.162 214.303 215.285 213.709 215.554 213.215C215.823 212.72 216.222 212.343 216.751 212.083C217.28 211.814 217.922 211.68 218.677 211.68ZM218.726 213.072C218.083 213.072 217.595 213.241 217.259 213.579C216.932 213.909 216.779 214.373 216.8 214.971C216.821 215.57 216.998 216.038 217.331 216.377C217.672 216.706 218.147 216.871 218.754 216.871C219.188 216.871 219.559 216.802 219.867 216.663C220.174 216.515 220.405 216.303 220.56 216.025C220.724 215.739 220.799 215.405 220.786 215.023C220.774 214.685 220.693 214.368 220.544 214.074C220.404 213.779 220.183 213.54 219.881 213.358C219.588 213.167 219.203 213.072 218.726 213.072ZM223.361 221.828L227.628 211.289H229.216L224.95 221.828H223.361ZM234.239 221.308L233.971 213.631H233.945L230.681 215.596L230.163 214.178L233.908 211.81H235.561L235.893 221.308H234.239ZM242.605 221.308L242.337 213.631H242.311L239.047 215.596L238.529 214.178L242.274 211.81H243.927L244.259 221.308H242.605Z" fill="white"/>
<path d="M73.0307 221.308L72.699 211.81H75.5632C76.9606 211.81 77.9883 212.035 78.6463 212.486C79.313 212.937 79.6635 213.653 79.6977 214.633C79.7314 215.596 79.444 216.316 78.8358 216.793C78.2362 217.27 77.3028 217.509 76.0356 217.509H73.6141L73.5705 216.259H75.7837C76.669 216.259 77.3027 216.138 77.6848 215.895C78.0753 215.644 78.2608 215.24 78.2414 214.685C78.222 214.13 78.0085 213.731 77.6007 213.488C77.2014 213.237 76.5591 213.111 75.6738 213.111H74.1766L74.4628 221.308H73.0307ZM78.5899 221.308L74.1288 216.962H75.9385L80.4516 221.308H78.5899ZM82.0068 221.308L81.6751 211.81H87.9242L87.9687 213.085H83.1517L83.2435 215.713H87.8001L87.8438 216.962H83.2871L83.3943 220.033H88.2114L88.2559 221.308H82.0068ZM96.1039 221.308L95.7723 211.81H97.2044L97.536 221.308H96.1039ZM90.2454 221.308L89.9137 211.81H91.3458L91.6775 221.308H90.2454ZM90.8106 216.988L90.7651 215.687H96.6237L96.6691 216.988H90.8106ZM98.818 221.308L101.949 211.81H103.889L107.671 221.308H106.096L102.969 213.033H102.942L100.393 221.308H98.818ZM100.531 218.927L100.486 217.626H105.759L105.804 218.927H100.531ZM108.948 221.308L108.616 211.81H110.178L114.959 218.966H114.985L114.735 211.81H116.167L116.499 221.308H114.936L110.156 214.152H110.13L110.38 221.308H108.948ZM122.361 221.308L122.029 211.81H124.893C126.291 211.81 127.318 212.035 127.976 212.486C128.643 212.937 128.993 213.653 129.028 214.633C129.061 215.596 128.774 216.316 128.166 216.793C127.566 217.27 126.633 217.509 125.366 217.509H122.944L122.9 216.259H125.114C125.999 216.259 126.633 216.138 127.015 215.895C127.405 215.644 127.591 215.24 127.571 214.685C127.552 214.13 127.338 213.731 126.931 213.488C126.531 213.237 125.889 213.111 125.004 213.111H123.507L123.793 221.308H122.361ZM127.92 221.308L123.459 216.962H125.268L129.782 221.308H127.92ZM130.399 221.308L133.531 211.81H135.471L139.252 221.308H137.677L134.55 213.033H134.524L131.975 221.308H130.399ZM132.113 218.927L132.067 217.626H137.34L137.386 218.927H132.113ZM140.646 221.308L140.314 211.81H141.799L142.13 221.308H140.646ZM150.316 221.308L149.984 211.81H151.416L151.748 221.308H150.316ZM144.457 221.308L144.126 211.81H145.558L145.89 221.308H144.457ZM145.023 216.988L144.977 215.687H150.836L150.881 216.988H145.023ZM153.03 221.308L156.162 211.81H158.101L161.883 221.308H160.308L157.181 213.033H157.155L154.605 221.308H153.03ZM154.744 218.927L154.698 217.626H159.971L160.016 218.927H154.744ZM163.16 221.308L162.828 211.81H164.39L169.171 218.966H169.197L168.947 211.81H170.379L170.711 221.308H169.148L164.368 214.152H164.342L164.592 221.308H163.16Z" fill="white"/>
<path fill-rule="evenodd" clip-rule="evenodd" d="M85.6737 52.1753C88.1798 49.797 89.6835 46.3851 89.5511 42.5934C89.4187 38.8017 87.6767 35.3897 85.0044 33.0114C87.2478 30.8828 90.2956 29.5823 93.6917 29.5823C100.882 29.5823 106.914 35.4077 107.165 42.5934C107.416 49.7791 101.791 55.6045 94.6004 55.6045C91.2043 55.6045 88.0657 54.304 85.6737 52.1753ZM85.6737 52.1753C83.4303 54.304 80.3825 55.6045 76.9864 55.6045C69.7963 55.6045 63.7639 49.7791 63.513 42.5934C63.2621 35.4077 68.8876 29.5823 76.0777 29.5823C79.4738 29.5823 82.6124 30.8828 85.0044 33.0114C82.4983 35.3897 80.9946 38.8017 81.127 42.5934C81.2594 46.3851 83.0015 49.797 85.6737 52.1753Z" fill="white"/>
<path fill-rule="evenodd" clip-rule="evenodd" d="M398.65 29.8344C399.242 29.4003 400.092 29.5408 400.548 30.1482C402.973 33.3824 405.925 38.8985 406.948 45.0426C407.978 51.2287 407.057 58.1346 401.588 63.8763C401.082 64.4077 400.225 64.4133 399.675 63.8889C399.125 63.3645 399.09 62.5086 399.596 61.9772C404.366 56.9695 405.207 50.9717 404.278 45.3952C403.342 39.7767 400.615 34.6712 398.402 31.7202C397.946 31.1128 398.057 30.2685 398.65 29.8344ZM392.96 34.7921C393.552 34.3571 394.402 34.4964 394.858 35.1031C396.57 37.379 398.648 41.2499 399.37 45.5724C400.098 49.9375 399.447 54.845 395.552 58.9212C395.045 59.4518 394.188 59.4561 393.639 58.9308C393.09 58.4056 393.056 57.5497 393.563 57.0191C396.757 53.6766 397.327 49.6788 396.7 45.9261C396.066 42.1307 394.214 38.6712 392.715 36.6784C392.258 36.0717 392.368 35.2271 392.96 34.7921ZM388.635 40.2031C389.225 39.7652 390.075 39.9004 390.534 40.5051C391.469 41.7354 392.595 43.8122 392.989 46.1492C393.389 48.5308 393.031 51.26 390.85 53.5188C390.34 54.0468 389.483 54.0468 388.937 53.5188C388.39 52.9909 388.36 52.135 388.87 51.6071C390.344 50.0809 390.616 48.2666 390.32 46.5064C390.016 44.7016 389.118 43.0384 388.399 42.0908C387.939 41.4861 388.045 40.641 388.635 40.2031ZM385.115 45.804C384.617 45.804 384.227 46.2075 384.245 46.7052C384.262 47.2029 384.68 47.6064 385.178 47.6064C385.676 47.6064 386.066 47.2029 386.048 46.7052C386.031 46.2075 385.613 45.804 385.115 45.804ZM381.539 46.7052C381.47 44.7143 383.028 43.1004 385.021 43.1004C387.013 43.1004 388.684 44.7143 388.753 46.7052C388.823 48.6961 387.264 50.31 385.272 50.31C383.28 50.31 381.609 48.6961 381.539 46.7052Z" fill="white"/>
<path d="M72.5986 144.9L72.1707 132.648H72.1273L67.6194 136.529L67.4952 132.973L72.0458 129.07H75.1703L75.7232 144.9H72.5986ZM83.3686 145.117C82.1535 145.117 81.1697 144.907 80.4173 144.488C79.6794 144.069 79.1274 143.382 78.7614 142.428C78.4098 141.474 78.2063 140.201 78.1508 138.611C78.0725 136.37 78.298 134.542 78.8271 133.125C79.3557 131.694 80.2155 130.631 81.4064 129.937C82.5973 129.243 84.1469 128.882 86.0554 128.853L86.1493 131.542C85.2813 131.542 84.5052 131.686 83.821 131.975C83.1362 132.25 82.5927 132.633 82.1904 133.125C81.788 133.616 81.5695 134.195 81.5349 134.86H81.6217C82.0191 134.643 82.3972 134.491 82.7558 134.404C83.1144 134.317 83.5035 134.274 83.923 134.274C85.3117 134.274 86.3464 134.701 87.0271 135.553C87.7218 136.392 88.1002 137.7 88.1623 139.479C88.2325 141.488 87.8924 142.934 87.1421 143.816C86.4057 144.683 85.1478 145.117 83.3686 145.117ZM83.2994 142.514C83.9503 142.514 84.4196 142.283 84.7073 141.821C84.9944 141.343 85.1208 140.613 85.0864 139.63C85.0521 138.647 84.875 137.924 84.555 137.462C84.2346 136.985 83.7489 136.746 83.098 136.746C82.447 136.746 81.978 136.985 81.6909 137.462C81.4032 137.924 81.2766 138.647 81.3109 139.63C81.3452 140.613 81.5226 141.343 81.8431 141.821C82.163 142.283 82.6484 142.514 83.2994 142.514ZM93.9709 138.047C93.508 138.047 93.1343 137.91 92.8499 137.635C92.5655 137.361 92.4154 136.999 92.3998 136.551C92.3836 136.088 92.5084 135.727 92.7742 135.467C93.0394 135.192 93.4035 135.055 93.8664 135.055C94.3293 135.055 94.703 135.192 94.9874 135.467C95.2713 135.727 95.4214 136.088 95.4375 136.551C95.4532 136.999 95.3284 137.361 95.0631 137.635C94.7979 137.91 94.4338 138.047 93.9709 138.047ZM94.2178 145.117C93.0171 145.117 92.0541 144.878 91.3286 144.401C90.6026 143.91 90.0613 143.114 89.7047 142.016C89.3481 140.917 89.138 139.457 89.0744 137.635L89.0289 136.334C88.9648 134.498 89.073 133.038 89.3533 131.954C89.6332 130.855 90.1192 130.067 90.8114 129.59C91.503 129.099 92.4492 128.853 93.6498 128.853C94.836 128.853 95.7921 129.099 96.5181 129.59C97.258 130.067 97.8063 130.855 98.1629 131.954C98.519 133.038 98.7291 134.498 98.7932 136.334L98.8387 137.635C98.9023 139.457 98.7941 140.917 98.5143 142.016C98.2344 143.114 97.7414 143.91 97.0353 144.401C96.3431 144.878 95.404 145.117 94.2178 145.117ZM94.1239 142.428C94.6157 142.428 94.98 142.298 95.2169 142.037C95.4537 141.777 95.6031 141.293 95.6652 140.584C95.7412 139.862 95.755 138.806 95.7065 137.418L95.6762 136.551C95.6278 135.163 95.5405 134.115 95.4145 133.407C95.3025 132.684 95.119 132.192 94.864 131.932C94.609 131.672 94.2356 131.542 93.7437 131.542C93.2664 131.542 92.902 131.672 92.6507 131.932C92.4139 132.192 92.2575 132.684 92.1815 133.407C92.1194 134.115 92.1126 135.163 92.1611 136.551L92.1914 137.418C92.2398 138.806 92.3201 139.862 92.4321 140.584C92.5581 141.293 92.7486 141.777 93.0036 142.037C93.2731 142.298 93.6465 142.428 94.1239 142.428ZM100.629 142.298C101.576 141.242 102.375 140.303 103.026 139.479C103.676 138.64 104.2 137.888 104.596 137.223C104.992 136.544 105.274 135.929 105.443 135.38C105.612 134.831 105.688 134.31 105.671 133.819C105.644 133.052 105.458 132.489 105.112 132.127C104.767 131.766 104.24 131.585 103.531 131.585C102.605 131.585 101.523 131.853 100.283 132.387L100.184 129.568C101.253 129.091 102.568 128.853 104.13 128.853C105.707 128.853 106.877 129.229 107.641 129.98C108.405 130.718 108.814 131.881 108.87 133.472C108.893 134.137 108.823 134.816 108.659 135.51C108.509 136.19 108.259 136.891 107.908 137.614C107.557 138.336 107.113 139.081 106.575 139.847C106.053 140.613 105.422 141.401 104.683 142.211L104.686 142.298H109.308L109.399 144.9H100.72L100.629 142.298ZM137.368 138.047C136.905 138.047 136.531 137.91 136.247 137.635C135.962 137.361 135.812 136.999 135.797 136.551C135.78 136.088 135.905 135.727 136.171 135.467C136.436 135.192 136.8 135.055 137.263 135.055C137.726 135.055 138.1 135.192 138.384 135.467C138.668 135.727 138.818 136.088 138.834 136.551C138.85 136.999 138.725 137.361 138.46 137.635C138.195 137.91 137.831 138.047 137.368 138.047ZM137.615 145.117C136.414 145.117 135.451 144.878 134.725 144.401C133.999 143.91 133.458 143.114 133.102 142.016C132.745 140.917 132.535 139.457 132.471 137.635L132.426 136.334C132.362 134.498 132.47 133.038 132.75 131.954C133.03 130.855 133.516 130.067 134.208 129.59C134.9 129.099 135.846 128.853 137.047 128.853C138.233 128.853 139.189 129.099 139.915 129.59C140.655 130.067 141.203 130.855 141.56 131.954C141.916 133.038 142.126 134.498 142.19 136.334L142.235 137.635C142.299 139.457 142.191 140.917 141.911 142.016C141.631 143.114 141.138 143.91 140.432 144.401C139.74 144.878 138.801 145.117 137.615 145.117ZM137.521 142.428C138.013 142.428 138.377 142.298 138.614 142.037C138.851 141.777 139 141.293 139.062 140.584C139.138 139.862 139.152 138.806 139.103 137.418L139.073 136.551C139.025 135.163 138.937 134.115 138.811 133.407C138.699 132.684 138.516 132.192 138.261 131.932C138.006 131.672 137.632 131.542 137.141 131.542C136.663 131.542 136.299 131.672 136.048 131.932C135.811 132.192 135.654 132.684 135.578 133.407C135.516 134.115 135.509 135.163 135.558 136.551L135.588 137.418C135.637 138.806 135.717 139.862 135.829 140.584C135.955 141.293 136.145 141.777 136.4 142.037C136.67 142.298 137.043 142.428 137.521 142.428ZM147.896 128.853C149.125 128.853 150.109 129.062 150.847 129.482C151.585 129.901 152.13 130.588 152.481 131.542C152.847 132.496 153.058 133.768 153.114 135.358C153.191 137.585 152.966 139.413 152.437 140.845C151.909 142.276 151.049 143.338 149.858 144.032C148.682 144.726 147.132 145.088 145.209 145.117L145.115 142.428C145.998 142.428 146.774 142.29 147.444 142.016C148.128 141.727 148.672 141.336 149.074 140.845C149.476 140.339 149.694 139.76 149.73 139.11H149.643C149.245 139.327 148.867 139.479 148.509 139.565C148.15 139.652 147.761 139.695 147.341 139.695C145.953 139.695 144.911 139.276 144.216 138.438C143.536 137.585 143.164 136.269 143.102 134.491C143.032 132.481 143.365 131.043 144.101 130.176C144.852 129.294 146.117 128.853 147.896 128.853ZM147.965 131.455C147.314 131.455 146.845 131.694 146.558 132.171C146.27 132.633 146.144 133.356 146.178 134.339C146.212 135.322 146.39 136.052 146.71 136.529C147.03 136.992 147.516 137.223 148.166 137.223C148.817 137.223 149.287 136.992 149.574 136.529C149.861 136.052 149.988 135.322 149.954 134.339C149.919 133.356 149.742 132.633 149.422 132.171C149.102 131.694 148.616 131.455 147.965 131.455ZM159.392 144.9L158.964 132.648H158.921L154.413 136.529L154.289 132.973L158.839 129.07H161.964L162.517 144.9H159.392ZM170.241 144.9L169.814 132.648H169.77L165.262 136.529L165.138 132.973L169.689 129.07H172.813L173.366 144.9H170.241ZM198.272 142.298C199.219 141.242 200.017 140.303 200.669 139.479C201.319 138.64 201.843 137.888 202.239 137.223C202.635 136.544 202.917 135.929 203.086 135.38C203.255 134.831 203.331 134.31 203.313 133.819C203.287 133.052 203.101 132.489 202.755 132.127C202.41 131.766 201.883 131.585 201.174 131.585C200.248 131.585 199.165 131.853 197.926 132.387L197.827 129.568C198.895 129.091 200.211 128.853 201.773 128.853C203.35 128.853 204.52 129.229 205.284 129.98C206.048 130.718 206.457 131.881 206.513 133.472C206.536 134.137 206.466 134.816 206.302 135.51C206.152 136.19 205.902 136.891 205.551 137.614C205.2 138.336 204.756 139.081 204.218 139.847C203.695 140.613 203.065 141.401 202.326 142.211L202.329 142.298H206.951L207.042 144.9H198.363L198.272 142.298ZM213.312 138.047C212.849 138.047 212.476 137.91 212.191 137.635C211.907 137.361 211.757 136.999 211.741 136.551C211.725 136.088 211.85 135.727 212.115 135.467C212.381 135.192 212.745 135.055 213.208 135.055C213.671 135.055 214.044 135.192 214.329 135.467C214.613 135.727 214.763 136.088 214.779 136.551C214.794 136.999 214.67 137.361 214.404 137.635C214.139 137.91 213.775 138.047 213.312 138.047ZM213.559 145.117C212.358 145.117 211.395 144.878 210.67 144.401C209.944 143.91 209.403 143.114 209.046 142.016C208.689 140.917 208.479 139.457 208.416 137.635L208.37 136.334C208.306 134.498 208.414 133.038 208.695 131.954C208.974 130.855 209.46 130.067 210.153 129.59C210.844 129.099 211.79 128.853 212.991 128.853C214.177 128.853 215.133 129.099 215.859 129.59C216.599 130.067 217.148 130.855 217.504 131.954C217.86 133.038 218.07 134.498 218.134 136.334L218.18 137.635C218.244 139.457 218.135 140.917 217.856 142.016C217.576 143.114 217.083 143.91 216.377 144.401C215.684 144.878 214.745 145.117 213.559 145.117ZM213.465 142.428C213.957 142.428 214.321 142.298 214.558 142.037C214.795 141.777 214.944 141.293 215.006 140.584C215.082 139.862 215.096 138.806 215.048 137.418L215.017 136.551C214.969 135.163 214.882 134.115 214.756 133.407C214.644 132.684 214.46 132.192 214.205 131.932C213.95 131.672 213.577 131.542 213.085 131.542C212.608 131.542 212.243 131.672 211.992 131.932C211.755 132.192 211.599 132.684 211.523 133.407C211.461 134.115 211.454 135.163 211.502 136.551L211.533 137.418C211.581 138.806 211.661 139.862 211.773 140.584C211.899 141.293 212.09 141.777 212.345 142.037C212.614 142.298 212.988 142.428 213.465 142.428ZM224.487 144.9L224.06 132.648H224.016L219.508 136.529L219.384 132.973L223.935 129.07H227.059L227.612 144.9H224.487ZM234.689 128.853C235.919 128.853 236.903 129.062 237.641 129.482C238.379 129.901 238.923 130.588 239.275 131.542C239.641 132.496 239.852 133.768 239.907 135.358C239.985 137.585 239.76 139.413 239.231 140.845C238.702 142.276 237.843 143.338 236.652 144.032C235.475 144.726 233.926 145.088 232.003 145.117L231.909 142.428C232.791 142.428 233.568 142.29 234.238 142.016C234.922 141.727 235.465 141.336 235.868 140.845C236.27 140.339 236.488 139.76 236.523 139.11H236.436C236.039 139.327 235.661 139.479 235.302 139.565C234.944 139.652 234.555 139.695 234.135 139.695C232.746 139.695 231.705 139.276 231.01 138.438C230.329 137.585 229.958 136.269 229.896 134.491C229.826 132.481 230.159 131.043 230.895 130.176C231.645 129.294 232.91 128.853 234.689 128.853ZM234.759 131.455C234.108 131.455 233.639 131.694 233.352 132.171C233.064 132.633 232.937 133.356 232.972 134.339C233.006 135.322 233.183 136.052 233.504 136.529C233.824 136.992 234.309 137.223 234.96 137.223C235.611 137.223 236.08 136.992 236.368 136.529C236.655 136.052 236.781 135.322 236.747 134.339C236.713 133.356 236.536 132.633 236.216 132.171C235.895 131.694 235.41 131.455 234.759 131.455ZM263.367 142.298C264.314 141.242 265.113 140.303 265.764 139.479C266.414 138.64 266.938 137.888 267.334 137.223C267.73 136.544 268.012 135.929 268.181 135.38C268.35 134.831 268.426 134.31 268.409 133.819C268.382 133.052 268.196 132.489 267.851 132.127C267.505 131.766 266.978 131.585 266.269 131.585C265.344 131.585 264.261 131.853 263.021 132.387L262.922 129.568C263.991 129.091 265.306 128.853 266.868 128.853C268.445 128.853 269.615 129.229 270.379 129.98C271.143 130.718 271.552 131.881 271.608 133.472C271.631 134.137 271.561 134.816 271.397 135.51C271.247 136.19 270.997 136.891 270.646 137.614C270.295 138.336 269.851 139.081 269.314 139.847C268.791 140.613 268.16 141.401 267.422 142.211L267.425 142.298H272.046L272.137 144.9H263.458L263.367 142.298ZM278.407 138.047C277.945 138.047 277.571 137.91 277.286 137.635C277.002 137.361 276.852 136.999 276.836 136.551C276.82 136.088 276.945 135.727 277.211 135.467C277.476 135.192 277.84 135.055 278.303 135.055C278.766 135.055 279.139 135.192 279.424 135.467C279.708 135.727 279.858 136.088 279.874 136.551C279.89 136.999 279.765 137.361 279.5 137.635C279.234 137.91 278.87 138.047 278.407 138.047ZM278.654 145.117C277.454 145.117 276.491 144.878 275.765 144.401C275.039 143.91 274.498 143.114 274.141 142.016C273.785 140.917 273.574 139.457 273.511 137.635L273.465 136.334C273.401 134.498 273.509 133.038 273.79 131.954C274.07 130.855 274.556 130.067 275.248 129.59C275.94 129.099 276.886 128.853 278.086 128.853C279.273 128.853 280.229 129.099 280.955 129.59C281.695 130.067 282.243 130.855 282.599 131.954C282.956 133.038 283.166 134.498 283.23 136.334L283.275 137.635C283.339 139.457 283.231 140.917 282.951 142.016C282.671 143.114 282.178 143.91 281.472 144.401C280.78 144.878 279.84 145.117 278.654 145.117ZM278.56 142.428C279.052 142.428 279.417 142.298 279.653 142.037C279.89 141.777 280.04 141.293 280.102 140.584C280.178 139.862 280.191 138.806 280.143 137.418L280.113 136.551C280.064 135.163 279.977 134.115 279.851 133.407C279.739 132.684 279.555 132.192 279.3 131.932C279.045 131.672 278.672 131.542 278.18 131.542C277.703 131.542 277.339 131.672 277.087 131.932C276.85 132.192 276.694 132.684 276.618 133.407C276.556 134.115 276.549 135.163 276.598 136.551L276.628 137.418C276.676 138.806 276.757 139.862 276.869 140.584C276.995 141.293 277.185 141.777 277.44 142.037C277.71 142.298 278.083 142.428 278.56 142.428ZM285.065 142.298C286.012 141.242 286.811 140.303 287.462 139.479C288.113 138.64 288.636 137.888 289.033 137.223C289.428 136.544 289.711 135.929 289.88 135.38C290.048 134.831 290.124 134.31 290.107 133.819C290.08 133.052 289.894 132.489 289.549 132.127C289.204 131.766 288.677 131.585 287.968 131.585C287.042 131.585 285.959 131.853 284.719 132.387L284.621 129.568C285.689 129.091 287.004 128.853 288.567 128.853C290.143 128.853 291.314 129.229 292.078 129.98C292.841 130.718 293.251 131.881 293.306 133.472C293.33 134.137 293.259 134.816 293.095 135.51C292.946 136.19 292.695 136.891 292.344 137.614C291.993 138.336 291.549 139.081 291.012 139.847C290.489 140.613 289.858 141.401 289.12 142.211L289.123 142.298H293.745L293.836 144.9H285.156L285.065 142.298ZM300.432 144.9L300.004 132.648H299.961L295.453 136.529L295.329 132.973L299.879 129.07H303.004L303.556 144.9H300.432Z" fill="white"/>
<path d="M370.654 201.007C370.631 200.347 371.149 199.811 371.81 199.811H381.986C382.647 199.811 383.201 200.347 383.224 201.007L383.491 208.627C383.507 209.088 383.256 209.509 382.846 209.707L377.842 212.129C377.522 212.284 377.144 212.284 376.813 212.129L371.641 209.707C371.217 209.509 370.937 209.088 370.92 208.627L370.654 201.007Z" fill="white"/>
<path d="M389.809 201.007C389.786 200.347 390.303 199.811 390.964 199.811H393.957C394.618 199.811 395.173 200.347 395.196 201.007L395.28 203.4C395.303 204.061 394.785 204.597 394.124 204.597H391.131C390.47 204.597 389.915 204.061 389.892 203.4L389.809 201.007Z" fill="white"/>
<path d="M401.78 201.007C401.757 200.347 402.275 199.811 402.936 199.811H413.112C413.773 199.811 414.327 200.347 414.35 201.007L414.601 208.186C414.624 208.847 414.107 209.382 413.446 209.382H403.27C402.609 209.382 402.054 208.847 402.031 208.186L401.78 201.007Z" fill="white"/>
<path d="M371.093 213.57C371.07 212.909 371.587 212.373 372.248 212.373H382.424C383.085 212.373 383.64 212.909 383.663 213.57L383.914 220.748C383.937 221.409 383.42 221.945 382.758 221.945H372.583C371.921 221.945 371.367 221.409 371.344 220.748L371.093 213.57Z" fill="white"/>
<path d="M386.489 208.784C386.466 208.123 386.983 207.588 387.644 207.588H397.82C398.481 207.588 399.036 208.123 399.059 208.784L399.644 225.534C399.667 226.195 399.15 226.731 398.489 226.731H388.313C387.652 226.731 387.097 226.195 387.074 225.534L386.489 208.784Z" fill="white"/>
<path d="M402.219 213.57C402.196 212.909 402.713 212.373 403.374 212.373H413.55C414.211 212.373 414.766 212.909 414.789 213.57L415.04 220.748C415.063 221.409 414.546 221.945 413.884 221.945H403.709C403.047 221.945 402.493 221.409 402.47 220.748L402.219 213.57Z" fill="white"/>
<path d="M371.532 226.132C371.509 225.472 372.026 224.936 372.687 224.936H382.863C383.524 224.936 384.079 225.472 384.102 226.132L384.353 233.311C384.376 233.972 383.858 234.507 383.197 234.507H373.021C372.36 234.507 371.805 233.972 371.782 233.311L371.532 226.132Z" fill="white"/>
<path d="M390.853 230.918C390.83 230.257 391.348 229.722 392.009 229.722H395.002C395.663 229.722 396.217 230.257 396.24 230.918L396.324 233.311C396.347 233.972 395.83 234.507 395.169 234.507H392.176C391.515 234.507 390.96 233.972 390.937 233.311L390.853 230.918Z" fill="white"/>
<path d="M402.642 225.691C402.626 225.23 402.877 224.81 403.287 224.611L408.29 222.19C408.611 222.035 408.989 222.035 409.32 222.19L414.492 224.611C414.916 224.81 415.196 225.23 415.212 225.691L415.479 233.311C415.502 233.972 414.984 234.507 414.323 234.507H404.147C403.486 234.507 402.931 233.972 402.908 233.311L402.642 225.691Z" fill="white"/>
<defs>
<filter id="filter0_b_18_11" x="7.9933" y="-12.6515" width="447.067" height="288.309" filterUnits="userSpaceOnUse" color-interpolation-filters="sRGB">
<feFlood flood-opacity="0" result="BackgroundImageFix"/>
<feGaussianBlur in="BackgroundImageFix" stdDeviation="6.47968"/>
<feComposite in2="SourceAlpha" operator="in" result="effect1_backgroundBlur_18_11"/>
<feBlend mode="normal" in="SourceGraphic" in2="effect1_backgroundBlur_18_11" result="shape"/>
</filter>
<linearGradient id="paint0_linear_18_11" x1="30.3778" y1="11.9341" x2="250.617" y2="260.381" gradientUnits="userSpaceOnUse">
<stop stop-color="white"/>
<stop offset="1" stop-color="white" stop-opacity="0.55"/>
</linearGradient>
<linearGradient id="paint1_linear_18_11" x1="30.3778" y1="11.9341" x2="250.617" y2="260.381" gradientUnits="userSpaceOnUse">
<stop stop-color="white"/>
<stop offset="1" stop-color="white" stop-opacity="0.55"/>
</linearGradient>
</defs>
</svg>
