<svg width="64" height="64" viewBox="0 0 64 64" fill="none" xmlns="http://www.w3.org/2000/svg">
<rect width="64" height="64" rx="24" fill="#3D544D"/>
<path d="M30.5466 22.2419C31.3791 21.3444 31.7954 20.8957 32.1334 20.8402C32.2665 20.8183 32.329 20.8185 32.462 20.8409C32.7998 20.898 33.2157 21.3503 34.0475 22.255C34.8973 23.1793 35.9766 24.1143 37.0958 24.4651C37.9976 24.7478 39.219 24.7433 40.2027 24.6705C40.964 24.6141 41.3447 24.5859 41.6088 24.7357C41.6967 24.7855 41.7708 24.8434 41.8403 24.9165C42.0496 25.1366 42.1064 25.4663 42.22 26.1258C42.6253 28.4791 43.1135 32.8106 41.8861 35.6279C40.755 38.2238 37.6861 40.6387 35.3235 42.2012C34.2123 42.9361 33.6567 43.3035 32.7458 43.4251C32.5054 43.4572 32.0861 43.4654 31.8446 43.4429C30.9297 43.3574 30.3591 43.0117 29.2179 42.3202C26.6876 40.787 23.3345 38.3501 22.1264 35.6279C20.8813 32.8227 21.3738 28.4974 21.7852 26.1391C21.9012 25.4738 21.9593 25.1411 22.1724 24.9205C22.2429 24.8474 22.3189 24.7892 22.4078 24.7401C22.6762 24.5916 23.0578 24.6261 23.8208 24.6951C24.9612 24.7983 26.446 24.827 27.5154 24.4651C28.6217 24.0907 29.6964 23.1584 30.5466 22.2419Z" fill="white" stroke="white" stroke-width="1.5" stroke-linejoin="round"/>
</svg>
