<svg width="56" height="57" viewBox="0 0 56 57" fill="none" xmlns="http://www.w3.org/2000/svg">
<rect y="0.250977" width="56" height="56" rx="28" fill="#3D544D"/>
<path d="M26.4962 20.251C19.6247 21.5843 19 28.251 19 28.251M19 28.251V32.5029C19 33.1981 19 33.5457 19.0574 33.8348C19.2937 35.026 20.2249 35.9573 21.4162 36.1936C21.7053 36.251 22.0529 36.251 22.7481 36.251V36.251C23.4434 36.251 23.791 36.251 24.0801 36.1936C25.2713 35.9573 26.2025 35.026 26.4389 33.8348C26.4962 33.5457 26.4962 33.1981 26.4962 32.5029V32.251C26.4962 31.321 26.4962 30.856 26.394 30.4745C26.1166 29.4392 25.308 28.6306 24.2727 28.3532C23.8912 28.251 23.4262 28.251 22.4962 28.251H19Z" stroke="white" stroke-width="1.5"/>
<path d="M37 20.251C30.1285 21.5843 29.5038 28.251 29.5038 28.251M29.5038 28.251V32.5029C29.5038 33.1981 29.5038 33.5457 29.5611 33.8348C29.7975 35.026 30.7287 35.9573 31.9199 36.1936C32.209 36.251 32.5567 36.251 33.2519 36.251V36.251C33.9471 36.251 34.2947 36.251 34.5838 36.1936C35.7751 35.9573 36.7063 35.026 36.9427 33.8348C37 33.5457 37 33.1981 37 32.5029V32.251C37 31.321 37 30.856 36.8978 30.4745C36.6204 29.4392 35.8117 28.6306 34.7765 28.3532C34.395 28.251 33.93 28.251 33 28.251H29.5038Z" stroke="white" stroke-width="1.5"/>
</svg>
