<svg width="155" height="65" viewBox="0 0 155 65" fill="none" xmlns="http://www.w3.org/2000/svg">
<rect y="0.249023" width="154.937" height="64" rx="16" fill="#3D544D"/>
<path d="M35.4876 31.1185C35.455 27.5861 38.4541 25.8675 38.5913 25.7875C36.8927 23.373 34.2601 23.0431 33.3349 23.0168C31.1238 22.79 28.979 24.3068 27.8527 24.3068C26.7038 24.3068 24.9693 23.0388 23.1 23.076C20.6944 23.1122 18.4439 24.4701 17.2096 26.5788C14.6624 30.8785 16.5622 37.1969 19.0026 40.6723C20.2234 42.3744 21.6499 44.2749 23.517 44.208C25.3437 44.1346 26.026 43.0726 28.2304 43.0726C30.4145 43.0726 31.0552 44.208 32.9595 44.1653C34.9199 44.1346 36.1542 42.4555 37.3323 40.7381C38.743 38.7872 39.3096 36.8659 39.332 36.7673C39.2859 36.7519 35.5247 35.3523 35.4876 31.1185Z" fill="white"/>
<path d="M31.8905 20.7306C32.8729 19.5326 33.5451 17.9029 33.3585 16.249C31.9365 16.3104 30.1582 17.208 29.1342 18.3797C28.2281 19.4121 27.4188 21.1043 27.6279 22.6957C29.2252 22.8119 30.8653 21.9099 31.8905 20.7306Z" fill="white"/>
<path d="M56.7579 20.4051C56.7579 21.6951 56.3611 22.6661 55.5686 23.3183C54.8346 23.92 53.7914 24.2214 52.4402 24.2214C51.7703 24.2214 51.197 24.1929 50.717 24.1359V17.0875C51.3431 16.9888 52.0176 16.9384 52.746 16.9384C54.0331 16.9384 55.0032 17.2113 55.6574 17.7571C56.3903 18.3742 56.7579 19.2565 56.7579 20.4051ZM55.5158 20.4369C55.5158 19.6006 55.2887 18.9594 54.8346 18.5123C54.3804 18.0662 53.7172 17.8426 52.8438 17.8426C52.4728 17.8426 52.157 17.8667 51.895 17.9171V23.2755C52.0401 23.2974 52.3053 23.3073 52.6909 23.3073C53.5924 23.3073 54.2883 23.0629 54.7784 22.5741C55.2685 22.0852 55.5158 21.3728 55.5158 20.4369Z" fill="white"/>
<path d="M63.3441 21.5318C63.3441 22.3264 63.1114 22.9774 62.646 23.4881C62.1581 24.0131 61.5118 24.2751 60.7047 24.2751C59.9268 24.2751 59.3074 24.0241 58.8454 23.5199C58.3845 23.0168 58.1541 22.3823 58.1541 21.6173C58.1541 20.8172 58.3912 20.1607 58.8679 19.651C59.3445 19.1414 59.9852 18.886 60.7923 18.886C61.5702 18.886 62.1952 19.137 62.6685 19.6401C63.1181 20.1289 63.3441 20.7602 63.3441 21.5318ZM62.1222 21.569C62.1222 21.0923 62.0165 20.6835 61.8063 20.3426C61.559 19.9305 61.2071 19.7245 60.7496 19.7245C60.2764 19.7245 59.9167 19.9305 59.6694 20.3426C59.458 20.6835 59.3535 21.0988 59.3535 21.5899C59.3535 22.0666 59.4591 22.4754 59.6694 22.8163C59.9245 23.2284 60.2797 23.4344 60.7384 23.4344C61.188 23.4344 61.541 23.2251 61.795 22.8053C62.0131 22.4579 62.1222 22.0458 62.1222 21.569Z" fill="white"/>
<path d="M72.175 18.9912L70.517 24.1578H69.4378L68.751 21.9143C68.5768 21.3542 68.4351 20.7974 68.325 20.2451H68.3036C68.2013 20.8128 68.0597 21.3685 67.8776 21.9143L67.148 24.1578H66.0565L64.4974 18.9912H65.708L66.3072 21.4474C66.4522 22.0283 66.5714 22.5817 66.6669 23.1056H66.6883C66.776 22.6738 66.921 22.1236 67.1255 21.4583L67.8776 18.9923H68.8376L69.5581 21.4057C69.7323 21.9943 69.874 22.5609 69.983 23.1067H70.0156C70.0954 22.5752 70.2157 22.0085 70.3753 21.4057L71.0183 18.9923H72.175V18.9912Z" fill="white"/>
<path d="M78.2823 24.1578H77.1042V21.1986C77.1042 20.2867 76.749 19.8308 76.0363 19.8308C75.6867 19.8308 75.4046 19.9557 75.1854 20.2067C74.9684 20.4577 74.8583 20.7536 74.8583 21.0923V24.1567H73.6802V20.4676C73.6802 20.0138 73.6656 19.5217 73.6375 18.989H74.6728L74.7279 19.7968H74.7605C74.8976 19.5458 75.1022 19.3387 75.3709 19.1732C75.6901 18.9803 76.0476 18.8827 76.4388 18.8827C76.9334 18.8827 77.3448 19.0384 77.6719 19.3507C78.0788 19.7332 78.2823 20.3042 78.2823 21.0627V24.1578Z" fill="white"/>
<path d="M81.531 24.1578H80.354V16.6206H81.531V24.1578Z" fill="white"/>
<path d="M88.4667 21.5318C88.4667 22.3264 88.234 22.9774 87.7686 23.4881C87.2808 24.0131 86.6333 24.2751 85.8273 24.2751C85.0483 24.2751 84.4289 24.0241 83.968 23.5199C83.5071 23.0168 83.2767 22.3823 83.2767 21.6173C83.2767 20.8172 83.5139 20.1607 83.9905 19.651C84.4671 19.1414 85.1079 18.886 85.9138 18.886C86.6929 18.886 87.3167 19.137 87.7911 19.6401C88.2408 20.1289 88.4667 20.7602 88.4667 21.5318ZM87.2437 21.569C87.2437 21.0923 87.138 20.6835 86.9278 20.3426C86.6816 19.9305 86.3286 19.7245 85.8723 19.7245C85.3979 19.7245 85.0382 19.9305 84.792 20.3426C84.5807 20.6835 84.4761 21.0988 84.4761 21.5899C84.4761 22.0666 84.5818 22.4754 84.792 22.8163C85.0472 23.2284 85.4024 23.4344 85.861 23.4344C86.3107 23.4344 86.6625 23.2251 86.9165 22.8053C87.1357 22.4579 87.2437 22.0458 87.2437 21.569Z" fill="white"/>
<path d="M94.1682 24.1578H93.1104L93.0227 23.5627H92.9901C92.6281 24.0372 92.1122 24.2751 91.4422 24.2751C90.942 24.2751 90.5373 24.1183 90.2327 23.8071C89.9561 23.5243 89.8179 23.1725 89.8179 22.7549C89.8179 22.1236 90.0877 21.6425 90.6306 21.3093C91.1724 20.9761 91.9346 20.8128 92.9159 20.8205V20.724C92.9159 20.0434 92.5494 19.7036 91.8154 19.7036C91.2927 19.7036 90.8318 19.8319 90.4339 20.0861L90.1944 19.3321C90.6868 19.0351 91.2949 18.886 92.0121 18.886C93.397 18.886 94.0917 19.5984 94.0917 21.0232V22.9259C94.0917 23.4421 94.1176 23.8531 94.1682 24.1578ZM92.9451 22.3823V21.5855C91.6457 21.5635 90.9959 21.911 90.9959 22.6267C90.9959 22.8963 91.0701 23.098 91.2219 23.2328C91.3736 23.3676 91.567 23.4344 91.7974 23.4344C92.056 23.4344 92.2976 23.3544 92.518 23.1955C92.7394 23.0355 92.8754 22.8327 92.926 22.5839C92.9384 22.528 92.9451 22.4601 92.9451 22.3823Z" fill="white"/>
<path d="M100.862 24.1578H99.8168L99.7617 23.3281H99.7291C99.3952 23.9594 98.8265 24.2751 98.0272 24.2751C97.3887 24.2751 96.857 24.0306 96.4355 23.5418C96.0139 23.053 95.8037 22.4184 95.8037 21.6392C95.8037 20.8029 96.0319 20.1256 96.4906 19.6083C96.9346 19.126 97.4787 18.8849 98.1261 18.8849C98.8377 18.8849 99.3357 19.1184 99.6189 19.5864H99.6414V16.6206H100.821V22.7659C100.821 23.2689 100.834 23.7325 100.862 24.1578ZM99.6414 21.9789V21.1175C99.6414 20.9684 99.6302 20.8479 99.6088 20.7558C99.5425 20.4796 99.3997 20.2472 99.1828 20.0598C98.9636 19.8724 98.6994 19.7782 98.3948 19.7782C97.9553 19.7782 97.6113 19.948 97.3584 20.2889C97.1077 20.6297 96.9807 21.0649 96.9807 21.5964C96.9807 22.1072 97.101 22.5215 97.3426 22.8404C97.5978 23.1801 97.9418 23.35 98.3723 23.35C98.759 23.35 99.0681 23.2086 99.3031 22.9248C99.5301 22.6628 99.6414 22.3472 99.6414 21.9789Z" fill="white"/>
<path d="M110.938 21.5318C110.938 22.3264 110.705 22.9774 110.239 23.4881C109.752 24.0131 109.106 24.2751 108.298 24.2751C107.521 24.2751 106.902 24.0241 106.439 23.5199C105.978 23.0168 105.748 22.3823 105.748 21.6173C105.748 20.8172 105.985 20.1607 106.461 19.651C106.938 19.1414 107.579 18.886 108.387 18.886C109.164 18.886 109.79 19.137 110.262 19.6401C110.712 20.1289 110.938 20.7602 110.938 21.5318ZM109.717 21.569C109.717 21.0923 109.611 20.6835 109.401 20.3426C109.152 19.9305 108.802 19.7245 108.343 19.7245C107.871 19.7245 107.511 19.9305 107.263 20.3426C107.052 20.6835 106.947 21.0988 106.947 21.5899C106.947 22.0666 107.053 22.4754 107.263 22.8163C107.518 23.2284 107.873 23.4344 108.332 23.4344C108.782 23.4344 109.136 23.2251 109.39 22.8053C109.607 22.4579 109.717 22.0458 109.717 21.569Z" fill="white"/>
<path d="M117.272 24.1578H116.095V21.1986C116.095 20.2867 115.74 19.8308 115.026 19.8308C114.676 19.8308 114.394 19.9557 114.176 20.2067C113.958 20.4577 113.849 20.7536 113.849 21.0923V24.1567H112.67V20.4676C112.67 20.0138 112.656 19.5217 112.628 18.989H113.662L113.717 19.7968H113.75C113.888 19.5458 114.093 19.3387 114.36 19.1732C114.681 18.9803 115.037 18.8827 115.429 18.8827C115.923 18.8827 116.334 19.0384 116.661 19.3507C117.07 19.7332 117.272 20.3042 117.272 21.0627V24.1578Z" fill="white"/>
<path d="M125.2 19.8516H123.903V22.3614C123.903 22.9993 124.133 23.3183 124.59 23.3183C124.801 23.3183 124.977 23.3007 125.115 23.2645L125.145 24.1359C124.912 24.2214 124.607 24.2641 124.23 24.2641C123.765 24.2641 123.403 24.126 123.141 23.8498C122.878 23.5736 122.747 23.1089 122.747 22.4568V19.8516H121.973V18.9912H122.747V18.0443L123.902 17.7045V18.9901H125.199V19.8516H125.2Z" fill="white"/>
<path d="M131.437 24.1578H130.258V21.2205C130.258 20.2944 129.902 19.8308 129.191 19.8308C128.644 19.8308 128.271 20.0993 128.067 20.6363C128.032 20.7492 128.012 20.8873 128.012 21.0495V24.1567H126.835V16.6206H128.012V19.7343H128.034C128.405 19.1677 128.937 18.8849 129.626 18.8849C130.114 18.8849 130.517 19.0405 130.838 19.3529C131.237 19.742 131.437 20.3207 131.437 21.0857V24.1578Z" fill="white"/>
<path d="M137.87 21.3301C137.87 21.5361 137.854 21.7093 137.826 21.8507H134.293C134.309 22.3614 134.477 22.7505 134.805 23.0201C135.104 23.2612 135.489 23.3818 135.961 23.3818C136.484 23.3818 136.961 23.3007 137.39 23.1374L137.574 23.9353C137.072 24.1479 136.481 24.2542 135.796 24.2542C134.975 24.2542 134.329 24.0186 133.861 23.5473C133.392 23.076 133.159 22.4436 133.159 21.6501C133.159 20.8709 133.376 20.222 133.813 19.7047C134.269 19.1523 134.887 18.8761 135.666 18.8761C136.428 18.8761 137.007 19.1523 137.398 19.7047C137.714 20.1431 137.87 20.6856 137.87 21.3301ZM136.746 21.0331C136.755 20.6922 136.677 20.3985 136.518 20.1508C136.313 19.8319 136.002 19.6718 135.58 19.6718C135.196 19.6718 134.882 19.8275 134.643 20.1398C134.447 20.3886 134.331 20.6856 134.293 21.0331H136.746Z" fill="white"/>
<path d="M61.9232 43.9636H59.3703L57.9719 39.6793H53.1113L51.7792 43.9636H49.2938L54.1095 29.378H57.0839L61.9232 43.9636ZM57.5504 37.8819L56.2858 34.0733C56.152 33.6842 55.9013 32.768 55.5315 31.3256H55.4865C55.3393 31.946 55.1021 32.8622 54.7761 34.0733L53.534 37.8819H57.5504Z" fill="white"/>
<path d="M74.3074 38.5757C74.3074 40.3644 73.8117 41.7782 72.8202 42.8161C71.9322 43.7401 70.8294 44.2015 69.5131 44.2015C68.0923 44.2015 67.0716 43.7039 66.4499 42.7087H66.405V48.249H64.0084V36.9087C64.0084 35.7842 63.978 34.6301 63.9196 33.4464H66.0273L66.161 35.1134H66.206C67.0052 33.8574 68.2182 33.2305 69.8459 33.2305C71.1183 33.2305 72.1806 33.7204 73.0304 34.7013C73.8825 35.6833 74.3074 36.9744 74.3074 38.5757ZM71.8659 38.6612C71.8659 37.6375 71.6298 36.7936 71.1554 36.1294C70.6372 35.4368 69.9414 35.0904 69.0691 35.0904C68.4778 35.0904 67.9405 35.2833 67.4605 35.6636C66.9794 36.0472 66.6646 36.5481 66.5174 37.1684C66.4432 37.4578 66.4061 37.6945 66.4061 37.8808V39.6344C66.4061 40.3995 66.6467 41.045 67.1278 41.5722C67.6089 42.0994 68.2339 42.3624 69.0028 42.3624C69.9054 42.3624 70.608 42.0226 71.1105 41.3453C71.6141 40.6669 71.8659 39.7725 71.8659 38.6612Z" fill="white"/>
<path d="M86.7142 38.5757C86.7142 40.3644 86.2185 41.7782 85.2259 42.8161C84.339 43.7401 83.2362 44.2015 81.9199 44.2015C80.499 44.2015 79.4783 43.7039 78.8578 42.7087H78.8129V48.249H76.4163V36.9087C76.4163 35.7842 76.3859 34.6301 76.3275 33.4464H78.4352L78.5689 35.1134H78.6139C79.412 33.8574 80.6249 33.2305 82.2538 33.2305C83.5251 33.2305 84.5874 33.7204 85.4395 34.7013C86.2882 35.6833 86.7142 36.9744 86.7142 38.5757ZM84.2726 38.6612C84.2726 37.6375 84.0355 36.7936 83.5611 36.1294C83.0429 35.4368 82.3493 35.0904 81.4759 35.0904C80.8835 35.0904 80.3473 35.2833 79.8661 35.6636C79.385 36.0472 79.0714 36.5481 78.9241 37.1684C78.8511 37.4578 78.8129 37.6945 78.8129 37.8808V39.6344C78.8129 40.3995 79.0534 41.045 79.5323 41.5722C80.0134 42.0983 80.6384 42.3624 81.4095 42.3624C82.3122 42.3624 83.0148 42.0226 83.5172 41.3453C84.0208 40.6669 84.2726 39.7725 84.2726 38.6612Z" fill="white"/>
<path d="M100.586 39.8734C100.586 41.114 100.144 42.1235 99.257 42.9027C98.2824 43.7543 96.9256 44.1796 95.1821 44.1796C93.5724 44.1796 92.2819 43.8771 91.305 43.271L91.8603 41.3234C92.9125 41.9437 94.067 42.255 95.3248 42.255C96.2275 42.255 96.9301 42.0555 97.4348 41.6588C97.9373 41.262 98.1879 40.7293 98.1879 40.0652C98.1879 39.4733 97.9811 38.9746 97.5663 38.5702C97.1538 38.1658 96.4647 37.7899 95.5024 37.4424C92.8833 36.49 91.5748 35.0948 91.5748 33.2601C91.5748 32.0611 92.0335 31.0779 92.9519 30.3129C93.8669 29.5468 95.0876 29.1643 96.6142 29.1643C97.9755 29.1643 99.1063 29.3956 100.009 29.857L99.4098 31.7618C98.5667 31.3147 97.6135 31.0911 96.5467 31.0911C95.7037 31.0911 95.0449 31.2939 94.5728 31.6972C94.1738 32.0578 93.9737 32.4973 93.9737 33.0179C93.9737 33.5944 94.2019 34.0711 94.6605 34.446C95.0595 34.7923 95.7846 35.1671 96.8368 35.5716C98.1239 36.0768 99.0692 36.6676 99.6774 37.3449C100.283 38.02 100.586 38.865 100.586 39.8734Z" fill="white"/>
<path d="M108.509 35.2H105.868V40.3063C105.868 41.605 106.333 42.2539 107.266 42.2539C107.694 42.2539 108.05 42.2177 108.331 42.1454L108.397 43.9198C107.925 44.0919 107.303 44.1784 106.533 44.1784C105.587 44.1784 104.847 43.8968 104.313 43.3345C103.781 42.7712 103.514 41.8264 103.514 40.4992V35.1978H101.94V33.4442H103.514V31.5185L105.868 30.8258V33.4442H108.509V35.2Z" fill="white"/>
<path d="M120.428 38.6184C120.428 40.235 119.954 41.5623 119.007 42.6002C118.015 43.6688 116.697 44.2015 115.055 44.2015C113.472 44.2015 112.212 43.6896 111.273 42.666C110.333 41.6423 109.863 40.3501 109.863 38.7927C109.863 37.1629 110.346 35.828 111.316 34.7901C112.284 33.7511 113.59 33.2316 115.233 33.2316C116.815 33.2316 118.089 33.7434 119.05 34.7682C119.97 35.7623 120.428 37.0457 120.428 38.6184ZM117.942 38.6941C117.942 37.7241 117.729 36.8922 117.299 36.1985C116.796 35.3589 116.078 34.9403 115.147 34.9403C114.184 34.9403 113.452 35.36 112.95 36.1985C112.519 36.8933 112.307 37.7383 112.307 38.7379C112.307 39.7079 112.519 40.5397 112.95 41.2324C113.468 42.0719 114.192 42.4906 115.126 42.4906C116.041 42.4906 116.759 42.0632 117.277 41.2105C117.719 40.5036 117.942 39.6629 117.942 38.6941Z" fill="white"/>
<path d="M128.218 35.5014C127.981 35.4587 127.728 35.4368 127.463 35.4368C126.62 35.4368 125.968 35.7469 125.509 36.3684C125.11 36.9164 124.91 37.609 124.91 38.4453V43.9636H122.515L122.537 36.7585C122.537 35.5464 122.507 34.4427 122.447 33.4475H124.535L124.622 35.4598H124.689C124.942 34.7682 125.341 34.2114 125.887 33.7938C126.421 33.4179 126.998 33.2305 127.619 33.2305C127.841 33.2305 128.041 33.2458 128.218 33.2732V35.5014Z" fill="white"/>
<path d="M138.937 38.2074C138.937 38.6261 138.909 38.979 138.849 39.2673H131.659C131.687 40.3063 132.035 41.1009 132.702 41.6489C133.308 42.1388 134.092 42.3843 135.054 42.3843C136.119 42.3843 137.09 42.2188 137.963 41.8867L138.339 43.5088C137.318 43.9428 136.113 44.1587 134.722 44.1587C133.05 44.1587 131.737 43.6787 130.781 42.7197C129.828 41.7607 129.35 40.4729 129.35 38.8574C129.35 37.2714 129.794 35.9508 130.684 34.8975C131.614 33.773 132.872 33.2108 134.455 33.2108C136.01 33.2108 137.187 33.773 137.986 34.8975C138.619 35.7907 138.937 36.8955 138.937 38.2074ZM136.651 37.6013C136.667 36.9087 136.511 36.3102 136.186 35.805C135.771 35.1551 135.134 34.8306 134.276 34.8306C133.493 34.8306 132.855 35.1474 132.369 35.7831C131.97 36.2883 131.732 36.8944 131.659 37.6002H136.651V37.6013Z" fill="white"/>
</svg>
