<svg width="172" height="65" viewBox="0 0 172 65" fill="none" xmlns="http://www.w3.org/2000/svg">
<rect x="0.936737" y="0.249023" width="170.127" height="64" rx="16" fill="#3D544D"/>
<path d="M17.4861 17.5961C17.1381 17.9513 16.9367 18.5043 16.9367 19.2204V44.7637C16.9367 45.4798 17.1381 46.0328 17.4861 46.388L17.572 46.4659L32.2526 32.1581V31.8202L17.572 17.5124L17.4861 17.5961Z" fill="white"/>
<path d="M38.9177 36.9298L34.0296 32.1581V31.8202L38.9236 27.0485L39.0332 27.1106L44.829 30.3259C46.4831 31.2384 46.4831 32.7399 44.829 33.6582L39.0332 36.8677L38.9177 36.9298Z" fill="white"/>
<path d="M38.1447 37.7562L33.1411 32.8776L18.3746 47.2765C18.924 47.8395 19.8198 47.9074 20.8386 47.3443L38.1447 37.7562Z" fill="white"/>
<path d="M38.1447 26.2222L20.8386 16.634C19.8198 16.0767 18.924 16.1446 18.3746 16.7076L33.1411 31.1007L38.1447 26.2222Z" fill="white"/>
<path d="M62.1855 20.7205C62.1855 21.6849 61.8893 22.4573 61.3059 23.0334C60.6351 23.7163 59.7614 24.0599 58.6908 24.0599C57.6676 24.0599 56.7939 23.7105 56.0772 23.0219C55.359 22.3231 55.0007 21.4655 55.0007 20.4389C55.0007 19.4124 55.359 18.5548 56.0772 17.8618C56.7939 17.1673 57.6676 16.8179 58.6908 16.8179C59.2002 16.8179 59.6859 16.9204 60.1494 17.111C60.6114 17.303 60.9875 17.5629 61.26 17.8834L60.641 18.4927C60.1657 17.9455 59.5186 17.6755 58.6908 17.6755C57.9445 17.6755 57.2974 17.9296 56.748 18.4422C56.2046 18.9562 55.9321 19.6218 55.9321 20.4389C55.9321 21.2561 56.2046 21.9275 56.748 22.4415C57.2974 22.9482 57.9445 23.2081 58.6908 23.2081C59.4831 23.2081 60.1494 22.9482 60.6751 22.4357C61.0216 22.0964 61.2185 21.6286 61.2704 21.0309H58.6908V20.1964H62.1322C62.1737 20.3768 62.1855 20.5515 62.1855 20.7205Z" fill="white"/>
<path d="M67.6452 17.8271H64.4126V20.0217H67.3268V20.8562H64.4126V23.0507H67.6452V23.9011H63.4975V16.9767H67.6452V17.8271Z" fill="white"/>
<path d="M71.4982 23.9011H70.5831V17.8271H68.6003V16.9767H73.4825V17.8271H71.4982V23.9011Z" fill="white"/>
<path d="M77.0157 23.9011V16.9767H77.9294V23.9011H77.0157Z" fill="white"/>
<path d="M81.9793 23.9011H81.0716V17.8271H79.0814V16.9767H83.9695V17.8271H81.9793V23.9011Z" fill="white"/>
<path d="M93.2127 23.0103C92.5123 23.7105 91.6445 24.0599 90.6094 24.0599C89.5684 24.0599 88.7007 23.7105 88.0003 23.0103C87.3013 22.3115 86.9533 21.4539 86.9533 20.4389C86.9533 19.424 87.3013 18.5663 88.0003 17.8676C88.7007 17.1673 89.5684 16.8179 90.6094 16.8179C91.6386 16.8179 92.5064 17.1673 93.2068 17.8733C93.9116 18.5779 94.2596 19.4297 94.2596 20.4389C94.2596 21.4539 93.9116 22.3115 93.2127 23.0103ZM88.677 22.4299C89.2042 22.9482 89.8453 23.2081 90.6094 23.2081C91.3676 23.2081 92.0147 22.9482 92.536 22.4299C93.0617 21.9116 93.3282 21.246 93.3282 20.4389C93.3282 19.6319 93.0617 18.9663 92.536 18.448C92.0147 17.9296 91.3676 17.6698 90.6094 17.6698C89.8453 17.6698 89.2042 17.9296 88.677 18.448C88.1513 18.9663 87.8848 19.6319 87.8848 20.4389C87.8848 21.246 88.1513 21.9116 88.677 22.4299Z" fill="white"/>
<path d="M95.5435 23.9011V16.9767H96.6541L100.107 22.362H100.147L100.107 21.0309V16.9767H101.021V23.9011H100.067L96.4512 18.2502H96.4112L96.4512 19.5871V23.9011H95.5435Z" fill="white"/>
<path d="M86.7283 34.0134C83.9458 34.0134 81.6728 36.078 81.6728 38.9265C81.6728 41.752 83.9458 43.8383 86.7283 43.8383C89.5166 43.8383 91.7896 41.752 91.7896 38.9265C91.7896 36.078 89.5166 34.0134 86.7283 34.0134ZM86.7283 41.9036C85.2016 41.9036 83.8881 40.675 83.8881 38.9265C83.8881 37.155 85.2016 35.948 86.7283 35.948C88.255 35.948 89.5744 37.155 89.5744 38.9265C89.5744 40.675 88.255 41.9036 86.7283 41.9036ZM75.6978 34.0134C72.9095 34.0134 70.6424 36.078 70.6424 38.9265C70.6424 41.752 72.9095 43.8383 75.6978 43.8383C78.4847 43.8383 80.7532 41.752 80.7532 38.9265C80.7532 36.078 78.4847 34.0134 75.6978 34.0134ZM75.6978 41.9036C74.1696 41.9036 72.8517 40.675 72.8517 38.9265C72.8517 37.155 74.1696 35.948 75.6978 35.948C77.2245 35.948 78.538 37.155 78.538 38.9265C78.538 40.675 77.2245 41.9036 75.6978 41.9036ZM62.572 35.5192V37.6069H67.6852C67.5356 38.7735 67.1358 39.6311 66.5228 40.2288C65.7764 40.9507 64.614 41.752 62.572 41.752C59.4253 41.752 56.9613 39.2759 56.9613 36.2079C56.9613 33.1399 59.4253 30.6638 62.572 30.6638C64.2734 30.6638 65.5114 31.3121 66.425 32.1523L67.934 30.6811C66.656 29.4914 64.9561 28.5775 62.572 28.5775C58.257 28.5775 54.6305 32.0007 54.6305 36.2079C54.6305 40.4151 58.257 43.8383 62.572 43.8383C64.9043 43.8383 66.656 43.0933 68.0332 41.6957C69.4444 40.3198 69.8842 38.3851 69.8842 36.823C69.8842 36.3378 69.8427 35.8917 69.7687 35.5192H62.572ZM116.245 37.1377C115.829 36.039 114.545 34.0134 111.93 34.0134C109.339 34.0134 107.181 36.0043 107.181 38.9265C107.181 41.6784 109.316 43.8383 112.179 43.8383C114.493 43.8383 115.829 42.4624 116.378 41.6611L114.661 40.545C114.088 41.3622 113.307 41.9036 112.179 41.9036C111.058 41.9036 110.254 41.4026 109.738 40.4151L116.478 37.6964L116.245 37.1377ZM109.374 38.7735C109.316 36.8793 110.883 35.909 112.006 35.909C112.885 35.909 113.631 36.3378 113.88 36.9515L109.374 38.7735ZM103.897 43.5394H106.112V29.1016H103.897V43.5394ZM100.269 35.1077H100.195C99.6971 34.5331 98.7479 34.0134 97.5455 34.0134C95.0222 34.0134 92.7151 36.1733 92.7151 38.9424C92.7151 41.6957 95.0222 43.8383 97.5455 43.8383C98.7479 43.8383 99.6971 43.3142 100.195 42.7222H100.269V43.4268C100.269 45.3052 99.2395 46.3144 97.5796 46.3144C96.2261 46.3144 95.3865 45.3615 95.04 44.5602L93.1135 45.3441C93.6688 46.6464 95.1392 48.249 97.5796 48.249C100.177 48.249 102.368 46.759 102.368 43.1337V34.3122H100.269V35.1077ZM97.7351 41.9036C96.2084 41.9036 94.9304 40.6576 94.9304 38.9424C94.9304 37.2113 96.2084 35.948 97.7351 35.948C99.2395 35.948 100.426 37.2113 100.426 38.9424C100.426 40.6576 99.2395 41.9036 97.7351 41.9036ZM126.617 29.1016H121.318V43.5394H123.528V38.0689H126.617C129.07 38.0689 131.477 36.3378 131.477 33.5846C131.477 30.8327 129.064 29.1016 126.617 29.1016ZM126.674 36.0606H123.528V31.1099H126.674C128.324 31.1099 129.266 32.4454 129.266 33.5846C129.266 34.702 128.324 36.0606 126.674 36.0606ZM140.332 33.9859C138.735 33.9859 137.075 34.6732 136.393 36.1964L138.353 36.9977C138.775 36.1964 139.551 35.9365 140.372 35.9365C141.518 35.9365 142.68 36.6078 142.698 37.7932V37.9448C142.298 37.7195 141.442 37.386 140.389 37.386C138.278 37.386 136.126 38.5194 136.126 40.6345C136.126 42.5692 137.856 43.8152 139.8 43.8152C141.287 43.8152 142.107 43.1611 142.623 42.4003H142.698V43.5163H144.832V37.978C144.832 35.4182 142.871 33.9859 140.332 33.9859ZM140.065 41.8978C139.343 41.8978 138.336 41.5484 138.336 40.675C138.336 39.5575 139.591 39.1287 140.678 39.1287C141.651 39.1287 142.107 39.338 142.698 39.6138C142.525 40.9507 141.345 41.8978 140.065 41.8978ZM152.606 34.3021L150.066 40.5609H149.991L147.366 34.3021H144.983L148.928 43.0485L146.677 47.9155H148.986L155.064 34.3021H152.606ZM132.691 43.5394H134.906V29.1016H132.691V43.5394Z" fill="white"/>
</svg>
