<svg width="64" height="64" viewBox="0 0 64 64" fill="none" xmlns="http://www.w3.org/2000/svg">
<rect width="64" height="64" rx="24" fill="#3D544D"/>
<path d="M43.75 32C43.8881 32 44.0003 32.1119 43.9974 32.25C43.9531 34.3762 43.3444 36.4541 42.2317 38.2699C41.0754 40.1569 39.4198 41.6873 37.4479 42.692C35.476 43.6967 33.2647 44.1366 31.0585 43.963C28.8523 43.7893 26.737 43.009 24.9466 41.7082C23.1562 40.4074 21.7604 38.6368 20.9135 36.5922C20.0665 34.5476 19.8015 32.3086 20.1477 30.1227C20.4939 27.9369 21.4379 25.8894 22.8751 24.2066C24.2582 22.5872 26.0464 21.3662 28.0548 20.667C28.1852 20.6216 28.3264 20.6937 28.3691 20.825L31.4948 30.4452C31.7961 31.3723 32.66 32 33.6347 32H43.75Z" fill="white" stroke="white" stroke-width="1.5"/>
<path d="M33.1445 20.5967C33.1018 20.4654 33.1736 20.3239 33.3062 20.2858C34.3363 19.9895 35.4199 19.9223 36.4805 20.0903C37.6235 20.2714 38.7075 20.7204 39.6437 21.4006C40.58 22.0808 41.342 22.973 41.8674 24.0041C42.3549 24.9609 42.6259 26.0122 42.6624 27.0834C42.6671 27.2214 42.5547 27.3334 42.4167 27.3334L36.2415 27.3334C35.7 27.3334 35.22 26.9847 35.0527 26.4696L33.1445 20.5967Z" fill="white" stroke="white" stroke-width="1.5"/>
</svg>
