<svg width="64" height="64" viewBox="0 0 64 64" fill="none" xmlns="http://www.w3.org/2000/svg">
<rect width="64" height="64" rx="24" fill="#3D544D"/>
<path d="M28.6667 44H22.6667V39.6476C22.6667 37.3978 22.6667 36.2729 23.2396 35.4843C23.4247 35.2296 23.6486 35.0056 23.9033 34.8206C24.6919 34.2476 25.8168 34.2476 28.0667 34.2476H28.6667V34.1333C28.6667 31.641 28.6667 30.3949 29.2026 29.4667C29.5536 28.8586 30.0586 28.3536 30.6667 28.0026C31.5949 27.4667 32.841 27.4667 35.3333 27.4667V23C35.3333 21.3431 36.6765 20 38.3333 20C39.9902 20 41.3333 21.3431 41.3333 23V44H35.3333H28.6667Z" fill="white"/>
<path d="M44 44H41.3333M20 44H22.6667M35.3333 44H28.6667M35.3333 44V27.4667M35.3333 44H41.3333M28.6667 44H22.6667M28.6667 44V34.2476M22.6667 44V39.6476C22.6667 37.3978 22.6667 36.2729 23.2396 35.4843C23.4247 35.2296 23.6486 35.0056 23.9033 34.8206C24.6919 34.2476 25.8168 34.2476 28.0667 34.2476H28.6667M28.6667 34.2476V34.1333C28.6667 31.641 28.6667 30.3949 29.2026 29.4667C29.5536 28.8586 30.0586 28.3536 30.6667 28.0026C31.5949 27.4667 32.841 27.4667 35.3333 27.4667V27.4667M35.3333 27.4667V23C35.3333 21.3431 36.6765 20 38.3333 20V20C39.9902 20 41.3333 21.3431 41.3333 23V44" stroke="white" stroke-width="1.5" stroke-linecap="round"/>
</svg>
